<svg width="611" height="379" viewBox="0 0 611 379" fill="none" xmlns="http://www.w3.org/2000/svg">
    <g clip-path="url(#clip0_62_1008)">
    <path d="M50.5824 82.2258C67.9723 82.2258 82.0697 67.7927 82.0697 49.9885C82.0697 32.1844 67.9723 17.7512 50.5824 17.7512C33.1924 17.7512 19.0951 32.1844 19.0951 49.9885C19.0951 67.7927 33.1924 82.2258 50.5824 82.2258Z" fill="#FF6584"/>
    <path d="M303.923 379C471.775 379 607.846 373.352 607.846 366.385C607.846 359.418 471.775 353.771 303.923 353.771C136.071 353.771 0 359.418 0 366.385C0 373.352 136.071 379 303.923 379Z" fill="#618FD8"/>
    <path d="M77.3492 208.295C120.068 208.295 154.698 172.839 154.698 129.103C154.698 85.3667 120.068 49.9114 77.3492 49.9114C34.6304 49.9114 0 85.3667 0 129.103C0 172.839 34.6304 208.295 77.3492 208.295Z" fill="#6C63FF"/>
    <path d="M84.8049 367.632H68.962L76.1842 117.176L84.8049 367.632Z" fill="#3F3D56"/>
    <path d="M77.582 164.644L94.5899 140.552L77.3492 170.607L75.4853 167.267L77.582 164.644Z" fill="#3F3D56"/>
    <path d="M75.718 188.974L58.7108 164.883L75.9515 194.937L77.8154 191.597L75.718 188.974Z" fill="#3F3D56"/>
    <path d="M566.433 367.896H550.59L557.813 117.44L566.433 367.896Z" fill="#3F3D56"/>
    <path d="M559.21 164.907L576.218 140.816L558.978 170.87L557.114 167.531L559.21 164.907Z" fill="#3F3D56"/>
    <path d="M557.346 189.237L540.339 165.146L557.58 195.2L559.444 191.861L557.346 189.237Z" fill="#3F3D56"/>
    <path d="M314.227 367.854C393.806 367.854 458.318 301.805 458.318 220.33C458.318 138.856 393.806 72.8071 314.227 72.8071C234.647 72.8071 170.135 138.856 170.135 220.33C170.135 301.805 234.647 367.854 314.227 367.854Z" fill="#3F3D56"/>
    <path d="M314.227 355.641C387.218 355.641 446.39 295.061 446.39 220.33C446.39 145.6 387.218 85.0193 314.227 85.0193C241.235 85.0193 182.064 145.6 182.064 220.33C182.064 295.061 241.235 355.641 314.227 355.641Z" fill="white"/>
    <path d="M313.749 238.893C323.499 238.893 331.403 230.801 331.403 220.819C331.403 210.837 323.499 202.745 313.749 202.745C304 202.745 296.096 210.837 296.096 220.819C296.096 230.801 304 238.893 313.749 238.893Z" fill="#3F3D56"/>
    <path d="M317.566 91.8582H309.932V106.513H317.566V91.8582Z" fill="#3F3D56"/>
    <path d="M317.566 335.125H309.932V349.779H317.566V335.125Z" fill="#3F3D56"/>
    <path d="M202.103 224.727V216.911H187.789V224.727H202.103Z" fill="#3F3D56"/>
    <path d="M439.71 224.727V216.911H425.396V224.727H439.71Z" fill="#3F3D56"/>
    <path d="M308.66 228.665L315.184 213.392L396.932 259.745L308.66 228.665Z" fill="#3F3D56"/>
    <path d="M332.834 37.1475H295.619V81.1113H332.834V37.1475Z" fill="#3F3D56"/>
    <path d="M314.227 49.3597C337.942 49.3597 357.168 43.8921 357.168 37.1475C357.168 30.4029 337.942 24.9353 314.227 24.9353C290.511 24.9353 271.286 30.4029 271.286 37.1475C271.286 43.8921 290.511 49.3597 314.227 49.3597Z" fill="#3F3D56"/>
    <path d="M394.622 246.464L392.236 249.884C392.236 249.884 381.262 263.073 380.785 256.723C380.308 250.372 388.896 245.976 388.896 245.976L393.667 243.045L394.622 246.464Z" fill="#FFB8B8"/>
    <path d="M462.538 258.001L464.536 261.672C464.536 261.672 471.482 277.471 465.672 275.195C459.862 272.918 459.656 263.09 459.656 263.09L459.111 257.421L462.538 258.001Z" fill="#FFB8B8"/>
    <path d="M451.797 192.91C459.821 192.91 466.325 186.251 466.325 178.036C466.325 169.821 459.821 163.162 451.797 163.162C443.774 163.162 437.269 169.821 437.269 178.036C437.269 186.251 443.774 192.91 451.797 192.91Z" fill="#2F2E41"/>
    <path d="M450.445 300.198L452.354 312.899V316.807H463.327V311.922C463.327 311.922 463.804 303.129 461.896 300.686C459.988 298.244 450.445 300.198 450.445 300.198Z" fill="#FFB8B8"/>
    <path d="M430.883 300.198L432.792 312.899V316.807H443.765V311.922C443.765 311.922 444.242 303.129 442.334 300.686C440.426 298.244 430.883 300.198 430.883 300.198Z" fill="#FFB8B8"/>
    <path d="M438.268 198.179C438.268 198.179 434.047 200.456 436.93 205.637C439.813 210.818 456.727 264.419 456.727 264.419L466.486 261.583L457.88 227.684L452.952 206.379L438.268 198.179Z" fill="#6C63FF"/>
    <path d="M450.207 193.463C456.267 193.463 461.18 188.433 461.18 182.228C461.18 176.023 456.267 170.993 450.207 170.993C444.146 170.993 439.233 176.023 439.233 182.228C439.233 188.433 444.146 193.463 450.207 193.463Z" fill="#FFB8B8"/>
    <path d="M455.216 183.938L453.785 206.897L443.765 199.57C443.765 199.57 447.105 185.892 446.151 184.915L455.216 183.938Z" fill="#FFB8B8"/>
    <path d="M455.216 204.943L444.422 196.759C444.422 196.759 439.471 194.685 438.04 197.127C436.609 199.569 429.452 235.718 433.269 242.556C433.269 242.556 453.785 246.953 458.079 244.51L459.988 231.81C459.988 231.81 462.373 223.994 458.556 219.109L455.216 204.943Z" fill="#6C63FF"/>
    <path d="M440.903 197.616C440.903 197.616 437.086 194.685 433.746 199.57C430.406 204.454 390.328 243.045 390.328 243.045L397.007 250.861L423.249 228.39L439.948 214.713L440.903 197.616Z" fill="#6C63FF"/>
    <path d="M458.318 244.266C458.318 244.266 434.7 239.625 432.314 243.045L431.837 248.418C431.837 248.418 426.589 258.676 429.452 275.285C432.314 291.894 430.406 302.152 430.406 302.152C430.406 302.152 443.288 300.686 452.831 302.152C462.373 303.617 463.805 302.152 463.805 302.152L458.318 244.266Z" fill="#2F2E41"/>
    <path d="M464.282 314.853L450.445 315.341L455.216 351.978C455.216 351.978 451.399 367.609 455.693 368.586C458.678 369.203 461.714 369.53 464.759 369.563C464.759 369.563 469.053 373.959 473.824 373.471C476.993 373.057 480.063 372.064 482.889 370.54C482.889 370.54 483.844 367.609 480.504 366.632C477.164 365.655 468.099 362.724 466.19 352.466L464.282 314.853Z" fill="#2F2E41"/>
    <path d="M444.72 314.853L430.883 315.341L435.654 351.978C435.654 351.978 431.837 367.609 436.131 368.586C439.116 369.203 442.152 369.53 445.197 369.563C445.197 369.563 449.491 373.959 454.262 373.471C457.431 373.057 460.501 372.064 463.327 370.54C463.327 370.54 464.282 367.609 460.942 366.632C457.602 365.655 448.537 362.724 446.628 352.466L444.72 314.853Z" fill="#2F2E41"/>
    <path d="M456.879 168.536C460.199 168.536 462.891 165.78 462.891 162.381C462.891 158.982 460.199 156.226 456.879 156.226C453.559 156.226 450.868 158.982 450.868 162.381C450.868 165.78 453.559 168.536 456.879 168.536Z" fill="#2F2E41"/>
    <path d="M464.895 159.047C464.895 157.526 464.344 156.058 463.35 154.928C462.355 153.797 460.987 153.084 459.509 152.925C459.718 152.903 459.926 152.892 460.136 152.892C461.73 152.892 463.259 153.541 464.387 154.695C465.514 155.849 466.147 157.415 466.147 159.047C466.147 160.679 465.514 162.245 464.387 163.399C463.259 164.553 461.73 165.202 460.136 165.202C459.926 165.202 459.718 165.191 459.509 165.168C460.987 165.01 462.355 164.297 463.35 163.166C464.344 162.036 464.895 160.568 464.895 159.047Z" fill="#2F2E41"/>
    <path d="M450.107 181.037C455.641 181.037 460.127 178.281 460.127 174.882C460.127 171.483 455.641 168.727 450.107 168.727C444.574 168.727 440.088 171.483 440.088 174.882C440.088 178.281 444.574 181.037 450.107 181.037Z" fill="#2F2E41"/>
    <path d="M607.924 29.5401C607.514 22.1318 604.549 15.113 599.555 9.73518C594.561 4.35738 587.864 0.970124 580.658 0.177328C573.452 -0.615469 566.205 1.23773 560.21 5.40652C554.214 9.5753 549.859 15.7887 547.922 22.9389C547.552 22.9253 547.182 22.91 546.808 22.91C540.201 22.9113 533.772 25.1027 528.482 29.1564C523.193 33.2101 519.328 38.9083 517.465 45.3983C513.087 43.4288 508.195 43.0015 503.554 44.1833C498.913 45.3651 494.787 48.0893 491.82 51.9293H587.214C589.997 51.9374 592.753 51.3704 595.317 50.2623C597.881 49.1543 600.2 47.5279 602.136 45.4807C604.071 43.4334 605.584 41.0073 606.582 38.3476C607.58 35.6879 608.044 32.8494 607.945 30.0019C607.939 29.8482 607.932 29.6943 607.924 29.5401Z" fill="#618FD8"/>
    <path d="M528.175 95.4349C532.711 95.4349 536.389 91.6698 536.389 87.0252C536.389 82.3806 532.711 78.6155 528.175 78.6155C523.638 78.6155 519.961 82.3806 519.961 87.0252C519.961 91.6698 523.638 95.4349 528.175 95.4349Z" fill="#618FD8"/>
    <path d="M552.976 74.2C556.754 74.2 559.816 71.065 559.816 67.1977C559.816 63.3304 556.754 60.1953 552.976 60.1953C549.199 60.1953 546.137 63.3304 546.137 67.1977C546.137 71.065 549.199 74.2 552.976 74.2Z" fill="#618FD8"/>
    <path d="M586.358 113.656C590.894 113.656 594.572 109.891 594.572 105.246C594.572 100.602 590.894 96.8367 586.358 96.8367C581.821 96.8367 578.144 100.602 578.144 105.246C578.144 109.891 581.821 113.656 586.358 113.656Z" fill="#618FD8"/>
    <path d="M524.068 152.201C528.604 152.201 532.282 148.436 532.282 143.791C532.282 139.147 528.604 135.381 524.068 135.381C519.531 135.381 515.854 139.147 515.854 143.791C515.854 148.436 519.531 152.201 524.068 152.201Z" fill="#618FD8"/>
    <path d="M586.358 200.557C590.894 200.557 594.572 196.792 594.572 192.147C594.572 187.502 590.894 183.737 586.358 183.737C581.821 183.737 578.144 187.502 578.144 192.147C578.144 196.792 581.821 200.557 586.358 200.557Z" fill="#618FD8"/>
    <path d="M573.339 354.306C573.342 354.215 573.352 354.126 573.352 354.034C573.354 352.625 573.01 351.238 572.351 350.001C571.692 348.764 570.739 347.717 569.581 346.955C568.423 346.194 567.096 345.744 565.723 345.645C564.35 345.547 562.975 345.804 561.724 346.392C560.551 345.006 558.965 344.051 557.211 343.675C555.457 343.299 553.631 343.523 552.013 344.311C550.394 345.1 549.073 346.41 548.252 348.041C547.43 349.671 547.154 351.533 547.465 353.34C547.423 353.339 547.383 353.334 547.341 353.334C546.033 353.331 544.744 353.649 543.58 354.26C542.417 354.871 541.412 355.757 540.651 356.845C539.889 357.934 539.392 359.192 539.202 360.517C539.011 361.841 539.132 363.193 539.554 364.46C539.977 365.727 540.689 366.873 541.631 367.801C542.573 368.73 543.718 369.415 544.97 369.799C546.223 370.183 547.547 370.256 548.833 370.011C550.118 369.765 551.328 369.21 552.361 368.389C553.013 369.69 553.985 370.794 555.181 371.592C556.377 372.39 557.756 372.856 559.181 372.942C560.607 373.028 562.029 372.732 563.309 372.083C564.588 371.434 565.68 370.455 566.477 369.242C567.454 369.97 568.577 370.468 569.764 370.701C570.951 370.933 572.174 370.894 573.345 370.587C574.515 370.279 575.605 369.711 576.537 368.922C577.468 368.133 578.218 367.144 578.732 366.024C579.247 364.904 579.513 363.682 579.513 362.444C579.512 361.207 579.245 359.985 578.73 358.865C578.214 357.746 577.464 356.757 576.532 355.969C575.6 355.181 574.51 354.613 573.339 354.306Z" fill="#618FD8"/>
    <path d="M593.887 162.012C595.778 162.012 597.31 160.443 597.31 158.508C597.31 156.573 595.778 155.004 593.887 155.004C591.997 155.004 590.465 156.573 590.465 158.508C590.465 160.443 591.997 162.012 593.887 162.012Z" fill="#618FD8"/>
    <path d="M571.983 77.9148C573.873 77.9148 575.406 76.346 575.406 74.4108C575.406 72.4756 573.873 70.9067 571.983 70.9067C570.093 70.9067 568.561 72.4756 568.561 74.4108C568.561 76.346 570.093 77.9148 571.983 77.9148Z" fill="#618FD8"/>
    <path d="M560.346 164.815C562.237 164.815 563.769 163.246 563.769 161.311C563.769 159.376 562.237 157.807 560.346 157.807C558.456 157.807 556.924 159.376 556.924 161.311C556.924 163.246 558.456 164.815 560.346 164.815Z" fill="#618FD8"/>
    <path d="M563.085 161.311C564.975 161.311 566.507 159.743 566.507 157.807C566.507 155.872 564.975 154.303 563.085 154.303C561.194 154.303 559.662 155.872 559.662 157.807C559.662 159.743 561.194 161.311 563.085 161.311Z" fill="#618FD8"/>
    <path d="M565.138 157.807C567.028 157.807 568.561 156.238 568.561 154.303C568.561 152.368 567.028 150.799 565.138 150.799C563.248 150.799 561.716 152.368 561.716 154.303C561.716 156.238 563.248 157.807 565.138 157.807Z" fill="#618FD8"/>
    <path d="M556.924 187.241C558.814 187.241 560.346 185.672 560.346 183.737C560.346 181.802 558.814 180.233 556.924 180.233C555.034 180.233 553.501 181.802 553.501 183.737C553.501 185.672 555.034 187.241 556.924 187.241Z" fill="#618FD8"/>
    <path d="M607.577 226.487C609.468 226.487 611 224.918 611 222.983C611 221.047 609.468 219.479 607.577 219.479C605.687 219.479 604.155 221.047 604.155 222.983C604.155 224.918 605.687 226.487 607.577 226.487Z" fill="#618FD8"/>
    <path d="M534.335 228.589C536.225 228.589 537.758 227.02 537.758 225.085C537.758 223.15 536.225 221.581 534.335 221.581C532.445 221.581 530.913 223.15 530.913 225.085C530.913 227.02 532.445 228.589 534.335 228.589Z" fill="#618FD8"/>
    <path d="M538.442 120.664C540.333 120.664 541.865 119.095 541.865 117.16C541.865 115.225 540.333 113.656 538.442 113.656C536.552 113.656 535.02 115.225 535.02 117.16C535.02 119.095 536.552 120.664 538.442 120.664Z" fill="#618FD8"/>
    <path d="M554.186 183.737C556.076 183.737 557.609 182.168 557.609 180.233C557.609 178.298 556.076 176.729 554.186 176.729C552.296 176.729 550.763 178.298 550.763 180.233C550.763 182.168 552.296 183.737 554.186 183.737Z" fill="#618FD8"/>
    <path d="M550.763 178.131C552.654 178.131 554.186 176.562 554.186 174.627C554.186 172.691 552.654 171.123 550.763 171.123C548.873 171.123 547.341 172.691 547.341 174.627C547.341 176.562 548.873 178.131 550.763 178.131Z" fill="#618FD8"/>
    </g>
    <defs>
    <clipPath id="clip0_62_1008">
    <rect width="611" height="379" fill="white"/>
    </clipPath>
    </defs>
    </svg>
    