<svg width="540" height="531" viewBox="0 0 540 531" fill="none" xmlns="http://www.w3.org/2000/svg">
    <g clip-path="url(#clip0_62_926)">
    <path d="M393.302 98.6616C393.237 119.276 391.841 139.864 389.125 160.298C389.03 161.016 388.926 161.733 388.831 162.451H195.747C195.176 161.742 194.614 161.025 194.07 160.298C192.254 157.895 190.55 155.422 188.985 152.863C181.461 140.534 177.968 126.069 181.332 116.057L181.392 115.902C182.118 113.709 183.27 111.682 184.782 109.936C192.53 101.117 208.304 102.492 222.65 109.495C209.739 95.5232 199.422 77.8596 198.558 62.0462C197.71 46.622 205.718 35.5552 214.417 26.1398C214.703 25.8286 214.988 25.5259 215.274 25.2233C215.412 25.0677 215.559 24.9207 215.697 24.7651C222.486 17.589 230.407 10.508 241.934 11.2948C254.577 12.1594 268.647 22.6642 278.54 34.9414C288.433 47.2099 295.039 61.173 301.732 74.799C308.434 88.4163 315.681 102.379 326.378 113.991C311.876 95.8604 300.15 75.2054 295.748 55.0777C291.347 34.95 295.013 15.5746 307.794 6.0122C311.675 3.19798 316.173 1.35396 320.913 0.634448C321.466 0.539343 322.028 0.461531 322.599 0.392363C334.472 -1.02552 348.68 3.00343 360.804 12.756C374.156 23.4942 383.461 39.4718 388.131 54.6627C392.801 69.8535 393.371 84.4996 393.302 98.6616Z" fill="#04CA83"/>
    <path d="M267.332 162.451H263.64C262.464 161.725 261.282 161.007 260.094 160.298C259.359 159.84 258.616 159.399 257.872 158.95C245.583 151.54 233.22 144.436 220.782 137.637C208.356 130.833 195.868 124.346 183.321 118.175C182.988 118.033 182.716 117.778 182.552 117.456C182.387 117.134 182.341 116.764 182.421 116.412C182.434 116.365 182.455 116.322 182.482 116.282C182.655 115.953 183.044 115.815 183.615 116.092C185.154 116.853 186.702 117.613 188.241 118.392C200.824 124.668 213.354 131.262 225.832 138.173C238.302 145.081 250.703 152.298 263.034 159.823C263.294 159.978 263.553 160.143 263.813 160.298C264.989 161.016 266.156 161.734 267.332 162.451Z" fill="#EDEAFE"/>
    <path d="M314.937 162.451H312.654C312.135 161.734 311.625 161.016 311.106 160.298C298.914 143.404 286.723 126.51 274.536 109.616C254.577 81.9578 234.624 54.2995 214.677 26.6413C214.559 26.4925 214.471 26.3222 214.417 26.1398C214.245 25.526 214.694 25.1628 215.274 25.2233C215.518 25.2568 215.752 25.342 215.961 25.4732C216.17 25.6044 216.348 25.7786 216.484 25.9842C227.674 41.4949 238.861 56.9999 250.046 72.4991C269.901 100.019 289.753 127.536 309.602 155.05C310.864 156.797 312.127 158.552 313.389 160.298C313.908 161.016 314.427 161.734 314.937 162.451Z" fill="#EDEAFE"/>
    <path d="M365.725 148.912C365.63 152.759 365.396 156.546 365.085 160.298C365.024 161.016 364.964 161.733 364.903 162.451H362.508C362.577 161.733 362.646 161.016 362.707 160.298C363.182 154.877 363.511 149.396 363.528 143.767C363.505 128.163 361.897 112.601 358.729 97.3215C355.361 80.8692 350.566 64.7414 344.4 49.1206C337.927 32.6454 330.145 16.7148 321.129 1.48165C320.96 1.23349 320.883 0.93343 320.913 0.634354C321.008 -0.0486723 321.916 -0.256173 322.599 0.39227C322.734 0.51949 322.85 0.665006 322.945 0.824565C324.06 2.71802 325.156 4.61723 326.231 6.52221C334.919 21.8421 342.371 37.83 348.516 54.3341C354.37 70.0079 358.846 86.1619 361.894 102.613C364.748 117.875 366.032 133.388 365.725 148.912Z" fill="#EDEAFE"/>
    <path d="M532.451 160.298H7.54048C5.54114 160.3 3.62421 161.095 2.21049 162.508C0.796759 163.922 0.00175336 165.839 -2.86102e-06 167.837V523.461C0.00175108 525.46 0.796759 527.376 2.21049 528.79C3.62421 530.203 5.54114 530.998 7.54048 531H532.451C533.541 531 534.618 530.764 535.608 530.307C536.598 529.85 537.477 529.184 538.184 528.354C538.244 528.289 538.299 528.22 538.349 528.147C538.799 527.597 539.163 526.982 539.43 526.322C539.809 525.416 540.003 524.443 540 523.461V167.838C539.998 165.837 539.202 163.919 537.786 162.506C536.37 161.092 534.451 160.298 532.451 160.298ZM537.847 523.461C537.848 524.513 537.538 525.541 536.956 526.418C536.439 527.189 535.738 527.819 534.915 528.251C534.154 528.644 533.308 528.849 532.451 528.847H7.54048C6.11217 528.845 4.74284 528.277 3.73287 527.268C2.7229 526.258 2.15474 524.889 2.15301 523.461V167.838C2.15473 166.409 2.7229 165.04 3.73287 164.031C4.74284 163.021 6.11216 162.453 7.54048 162.451H532.451C533.88 162.451 535.252 163.018 536.263 164.028C537.275 165.038 537.845 166.408 537.847 167.838V523.461Z" fill="#3F3D56"/>
    <path d="M538.919 190.515H1.0746V192.67H538.919V190.515Z" fill="#3F3D56"/>
    <path d="M19.3979 182.929C22.9696 182.929 25.865 180.034 25.865 176.463C25.865 172.892 22.9696 169.997 19.3979 169.997C15.8263 169.997 12.9309 172.892 12.9309 176.463C12.9309 180.034 15.8263 182.929 19.3979 182.929Z" fill="#3F3D56"/>
    <path d="M37.9908 182.929C41.5624 182.929 44.4578 180.034 44.4578 176.463C44.4578 172.892 41.5624 169.997 37.9908 169.997C34.4191 169.997 31.5237 172.892 31.5237 176.463C31.5237 180.034 34.4191 182.929 37.9908 182.929Z" fill="#3F3D56"/>
    <path d="M56.5836 182.929C60.1552 182.929 63.0506 180.034 63.0506 176.463C63.0506 172.892 60.1552 169.997 56.5836 169.997C53.0119 169.997 50.1165 172.892 50.1165 176.463C50.1165 180.034 53.0119 182.929 56.5836 182.929Z" fill="#3F3D56"/>
    <path d="M239.519 373.74C233.051 369.53 229.834 359.747 231.419 350.801C233.004 341.854 238.972 334.148 246.127 330.825C249.607 329.257 253.422 328.577 257.23 328.848C261.038 329.118 264.719 330.331 267.942 332.375C274.503 336.386 283.783 338.583 286.898 346.609C289.293 352.776 286.256 365.299 283.033 371.289C280.248 376.466 274.955 378.835 269.983 379.863C264.482 380.985 258.804 380.913 253.333 379.651C247.862 378.389 242.726 375.966 238.273 372.548L239.519 373.74Z" fill="#2F2E41"/>
    <path d="M236.146 421.258L230.974 430.172L230.291 431.348L229.297 433.077H214.051L215.08 431.348L217.743 426.86L223.952 416.381L230.983 419.191L236.146 421.258Z" fill="#FFB8B8"/>
    <path d="M212.909 433.076L210.125 431.347L209.779 431.131L227.256 399.288C228.008 397.91 229.025 396.694 230.25 395.712C231.474 394.73 232.882 394 234.39 393.565C236.295 392.998 238.312 392.923 240.253 393.348C241.386 393.588 242.476 393.996 243.487 394.559C243.904 394.787 244.305 395.041 244.689 395.32C246.167 396.356 247.382 397.724 248.235 399.314C249.251 401.176 249.752 403.274 249.688 405.394C249.625 407.514 248.998 409.578 247.872 411.375L241.135 422.139L235.376 431.347L234.295 433.076H212.909Z" fill="#2F2E41"/>
    <path d="M257.811 385.041C269.542 385.041 279.051 375.534 279.051 363.806C279.051 352.078 269.542 342.571 257.811 342.571C246.081 342.571 236.572 352.078 236.572 363.806C236.572 375.534 246.081 385.041 257.811 385.041Z" fill="#FFB8B8"/>
    <path d="M279.133 433.076H231.39L231.606 432.463C231.485 432.091 231.372 431.719 231.268 431.347C231.156 430.958 231.061 430.561 230.975 430.171C230.199 426.552 230.202 422.809 230.983 419.191C233.621 406.24 244.145 395.718 244.145 395.718C244.326 395.579 244.508 395.449 244.69 395.32C246.255 394.174 247.954 393.221 249.748 392.484C257.566 389.242 265.764 390.547 271.272 392.225C273.19 392.805 275.066 393.518 276.885 394.36C277.524 394.663 277.871 394.853 277.871 394.853L278.415 411.462L279.072 431.347L279.133 433.076Z" fill="#6C63FF"/>
    <path d="M301.219 431.347L297.57 412.793L293.886 394.083C293.732 393.311 293.349 392.603 292.785 392.052C292.222 391.501 291.505 391.133 290.729 390.997L283.016 389.665L275.838 388.429C275.146 388.304 274.433 388.371 273.776 388.623C273.119 388.874 272.543 389.301 272.111 389.856C271.572 390.528 271.276 391.363 271.272 392.225C271.272 392.757 271.381 393.283 271.592 393.772C275.337 402.505 275.406 416.329 274.455 431.347C274.411 431.918 274.377 432.497 274.333 433.077H301.565L301.219 431.347Z" fill="#2F2E41"/>
    <path d="M249.748 392.484C249.59 391.855 249.277 391.275 248.838 390.797C248.4 390.318 247.849 389.957 247.236 389.744C246.622 389.531 245.966 389.474 245.325 389.578C244.685 389.682 244.08 389.944 243.565 390.34L240.253 393.348L226.694 405.695C226.271 406.074 225.94 406.544 225.725 407.07C224.195 410.727 221.211 417.946 217.743 426.86C217.181 428.313 216.602 429.808 216.005 431.347C215.798 431.918 215.573 432.497 215.348 433.076H237.694C237.875 432.497 238.057 431.918 238.238 431.347C239.233 428.209 240.201 425.131 241.135 422.139C243.868 413.45 246.332 405.557 248.235 399.314C248.763 397.585 249.244 395.988 249.679 394.524C249.882 393.862 249.906 393.158 249.748 392.484Z" fill="#2F2E41"/>
    <path d="M306.235 433.077H307.679L307.48 432.593L306.952 431.348L298.815 412.041L297.57 412.793L287.573 418.837L292.701 431.348L293.41 433.077H301.565H306.235Z" fill="#FFB8B8"/>
    <path d="M297.985 396.729C296.884 393.848 294.711 391.504 291.921 390.187C289.131 388.871 285.94 388.684 283.016 389.665C282.642 389.789 282.275 389.934 281.917 390.098C279.869 391.011 278.123 392.49 276.885 394.36C276.379 395.107 275.964 395.911 275.648 396.755C275.087 398.221 274.821 399.783 274.868 401.351C274.914 402.92 275.27 404.464 275.916 405.894L278.415 411.462L287.357 431.347L288.135 433.077H306.235L307.48 432.592L310.714 431.347L311.164 431.174L297.985 396.729Z" fill="#2F2E41"/>
    <path d="M274.493 339.417C275.233 339.639 276.026 339.61 276.749 339.336C277.471 339.062 278.083 338.557 278.49 337.9C278.875 337.231 279.102 336.482 279.152 335.711C279.203 334.94 279.076 334.168 278.782 333.454C278.18 332.028 277.23 330.775 276.019 329.81C274.644 328.566 272.971 327.7 271.161 327.295C270.257 327.101 269.322 327.103 268.419 327.301C267.516 327.5 266.666 327.89 265.927 328.446C265.202 329.02 264.664 329.797 264.382 330.678C264.101 331.56 264.089 332.505 264.348 333.393C264.898 334.988 266.388 336.056 267.875 336.852C270.827 338.427 274.082 339.352 277.421 339.565L274.493 339.417Z" fill="#2F2E41"/>
    <path d="M278.625 363.172C275.21 363.642 275.648 361.905 274.281 358.741C272.913 355.578 271.083 351.822 267.651 351.502C264.838 351.239 262.521 353.487 260.242 355.157C256.181 358.132 250.708 359.588 246 357.803C241.292 356.018 238.021 350.409 239.807 345.703C240.363 344.403 241.18 343.231 242.208 342.26C243.235 341.289 244.451 340.54 245.78 340.057C248.446 339.11 251.277 338.717 254.101 338.902C260.381 339.103 266.54 340.679 272.143 343.519C276.011 345.484 279.776 348.295 281.243 352.376C282.71 356.458 283.675 362.194 279.48 363.298L278.625 363.172Z" fill="#2F2E41"/>
    <path d="M272.747 328.191C271.059 325.253 272.453 321.223 275.214 319.26C277.976 317.298 281.681 317.105 284.976 317.892C288.235 318.713 291.221 320.376 293.634 322.715C296.048 325.054 297.804 327.986 298.726 331.217C300.124 336.354 299.293 341.871 300.477 347.061C301.109 349.828 302.3 352.436 303.977 354.725C305.655 357.014 307.783 358.936 310.232 360.372C312.68 361.807 315.396 362.727 318.214 363.073C321.031 363.42 323.889 363.186 326.612 362.386C330.16 361.345 333.765 358.813 334.113 355.133C334.481 359.359 333.517 363.593 331.357 367.244C329.198 370.895 325.95 373.779 322.069 375.493C317.499 377.399 312.401 377.524 307.45 377.397C304.224 377.314 300.925 377.12 297.949 375.872C295.889 374.933 294.038 373.592 292.504 371.929C290.969 370.266 289.783 368.313 289.013 366.185C287.497 361.908 287.088 357.317 287.823 352.84C288.31 349.357 289.279 345.943 289.55 342.437C289.821 338.931 289.307 335.187 287.145 332.413C284.983 329.639 280.853 328.222 277.779 329.932C276.544 330.619 275.547 331.741 274.205 332.184C272.863 332.628 270.961 331.849 271.083 330.441L272.747 328.191Z" fill="#2F2E41"/>
    <path d="M417.685 433.076L417.849 431.347L422.727 380.613C424.325 379.362 426.043 378.27 427.855 377.354C437.895 372.296 447.58 374.717 452.82 376.809C454.209 377.352 455.551 378.009 456.833 378.771L459.687 431.347L459.782 433.076H417.685Z" fill="#6C63FF"/>
    <path d="M440.526 367.111C452.256 367.111 461.765 357.603 461.765 345.875C461.765 334.147 452.256 324.64 440.526 324.64C428.796 324.64 419.286 334.147 419.286 345.875C419.286 357.603 428.796 367.111 440.526 367.111Z" fill="#FFB8B8"/>
    <path d="M457.759 358.823C459.338 357.16 460.386 355.064 460.77 352.804C461.154 350.543 460.857 348.219 459.916 346.127C458.976 344.036 457.434 342.271 455.488 341.058C453.541 339.845 451.278 339.238 448.986 339.315C446.049 339.413 443.281 340.615 440.478 341.496C436.23 342.941 431.698 343.349 427.26 342.687C422.796 341.994 418.767 339.615 416.004 336.042C413.376 332.431 412.557 327.422 414.413 323.36C416.557 318.671 421.563 316.088 426.272 313.988C428.172 313.038 430.2 312.371 432.293 312.011C433.342 311.836 434.415 311.881 435.446 312.14C436.476 312.4 437.442 312.87 438.283 313.52C439.606 314.658 440.382 316.369 441.822 317.355C443.443 318.465 445.549 318.436 447.504 318.632C451.908 319.073 456.074 320.843 459.447 323.709C462.82 326.574 465.24 330.398 466.386 334.673C467.532 338.947 467.349 343.469 465.862 347.637C464.375 351.805 461.654 355.421 458.061 358.005L457.759 358.823Z" fill="#2F2E41"/>
    <path d="M431.019 386.138L427.855 377.354L427.657 376.806C427.563 376.547 427.412 376.312 427.214 376.119C427.016 375.927 426.777 375.782 426.515 375.696C426.253 375.609 425.974 375.584 425.701 375.621C425.427 375.658 425.166 375.757 424.936 375.91L421.343 378.305C421.343 378.305 398.297 378.305 396.446 392.13C396.421 392.346 396.386 392.588 396.36 392.847C396.359 392.859 396.356 392.871 396.351 392.882C396.118 393.79 391.768 410.597 388.032 431.347C387.929 431.918 387.825 432.497 387.721 433.077H437.799V433.076C439.429 412.232 438.517 392.852 431.019 386.138Z" fill="#2F2E41"/>
    <path d="M490.757 431.347C488.025 410.061 484.116 392.847 484.116 392.847C484.082 392.588 484.047 392.346 484.021 392.13C482.179 378.305 459.133 378.305 459.133 378.305L455.542 375.911C455.312 375.758 455.05 375.659 454.777 375.622C454.503 375.585 454.224 375.611 453.962 375.697C453.7 375.784 453.461 375.929 453.263 376.121C453.065 376.314 452.914 376.549 452.82 376.809L449.456 386.138C441.959 392.851 441.047 412.232 442.676 433.076L442.677 433.077H490.973C490.904 432.497 490.827 431.918 490.757 431.347Z" fill="#2F2E41"/>
    <path d="M85.1149 382.878L79.9782 431.347L79.7966 433.076H65.9001C66.0644 432.514 66.2286 431.935 66.4018 431.347C70.3451 417.825 75.7152 398.086 75.1355 392.856C74.2277 384.694 80.5838 381.97 80.5838 381.97L80.9815 382.048L85.1149 382.878Z" fill="#6C63FF"/>
    <path d="M107.527 367.918C119.257 367.918 128.766 358.41 128.766 346.683C128.766 334.955 119.257 325.447 107.527 325.447C95.7965 325.447 86.2873 334.955 86.2873 346.683C86.2873 358.41 95.7965 367.918 107.527 367.918Z" fill="#A0616A"/>
    <path d="M135.02 422.788C133.949 424.762 133.072 426.835 132.4 428.978C132.149 429.739 131.907 430.535 131.682 431.347C131.518 431.909 131.371 432.489 131.224 433.077H75.2047C75.2828 432.506 75.3517 431.927 75.4298 431.347C78.2922 408.738 80.6095 385.792 80.9815 382.048C81.0161 381.694 81.0334 381.512 81.0334 381.512C114.603 363.823 139.102 386.959 139.102 386.959C139.102 386.959 139.137 387.123 139.189 387.443C139.725 390.677 142.457 409.56 135.02 422.788Z" fill="#6C63FF"/>
    <path d="M132.4 428.978L128.665 420.972L129.572 389.224L139.189 387.443L139.526 387.383C144.496 390.272 148.343 394.757 150.439 400.11C152.307 404.778 155.861 418.819 158.862 431.347C159 431.927 159.139 432.506 159.277 433.076H134.311L133.507 431.347L132.4 428.978Z" fill="#6C63FF"/>
    <path d="M166.567 290.419H43.7537C41.1194 290.422 38.594 291.47 36.7312 293.332C34.8685 295.195 33.8206 297.719 33.8174 300.353V423.142C33.8206 425.776 34.8685 428.301 36.7312 430.163C38.594 432.026 41.1194 433.073 43.7537 433.076H166.567C169.202 433.075 171.728 432.028 173.591 430.165C175.454 428.302 176.501 425.776 176.503 423.142V300.353C176.501 297.719 175.454 295.193 173.591 293.331C171.728 291.468 169.202 290.421 166.567 290.419ZM174.774 423.142C174.772 425.318 173.907 427.404 172.368 428.942C170.829 430.48 168.743 431.345 166.567 431.347H43.7537C41.5782 431.344 39.4927 430.479 37.9543 428.941C36.416 427.403 35.5503 425.317 35.5469 423.142V300.353C35.5503 298.178 36.416 296.093 37.9543 294.555C39.4927 293.017 41.5782 292.152 43.7537 292.148H166.567C168.743 292.15 170.829 293.015 172.368 294.553C173.907 296.092 174.772 298.178 174.774 300.353V423.142ZM79.9783 431.347L79.7966 433.076H131.224C131.371 432.489 131.518 431.909 131.682 431.347H79.9783Z" fill="#3F3D56"/>
    <path d="M331.399 290.419H208.586C205.952 290.422 203.426 291.47 201.563 293.332C199.701 295.195 198.653 297.719 198.649 300.353V423.142C198.653 425.776 199.701 428.301 201.563 430.163C203.426 432.026 205.952 433.073 208.586 433.076H331.399C334.034 433.075 336.56 432.028 338.423 430.165C340.286 428.302 341.333 425.776 341.335 423.142V300.353C341.333 297.719 340.286 295.193 338.423 293.331C336.56 291.468 334.034 290.421 331.399 290.419ZM339.606 423.142C339.604 425.318 338.739 427.404 337.2 428.942C335.661 430.48 333.575 431.345 331.399 431.347H208.586C206.41 431.344 204.325 430.479 202.786 428.941C201.248 427.403 200.382 425.317 200.379 423.142V300.353C200.382 298.178 201.248 296.093 202.786 294.555C204.325 293.017 206.41 292.152 208.586 292.148H331.399C333.575 292.15 335.661 293.015 337.2 294.553C338.739 296.092 339.604 298.178 339.606 300.353V423.142ZM231.268 431.347C231.372 431.719 231.485 432.091 231.606 432.463L231.39 433.076H274.333C274.377 432.497 274.411 431.918 274.455 431.347H231.268Z" fill="#3F3D56"/>
    <path d="M496.24 290.419H373.427C370.792 290.421 368.266 291.468 366.403 293.331C364.539 295.193 363.492 297.719 363.49 300.353V423.142C363.492 425.777 364.539 428.302 366.403 430.165C368.266 432.028 370.792 433.075 373.427 433.076H496.24C498.874 433.073 501.4 432.026 503.262 430.163C505.125 428.301 506.173 425.776 506.176 423.142V300.353C506.173 297.72 505.125 295.195 503.262 293.332C501.4 291.47 498.874 290.422 496.24 290.419ZM504.446 423.142C504.443 425.317 503.578 427.402 502.039 428.94C500.501 430.479 498.416 431.344 496.24 431.347H373.427C371.251 431.346 369.164 430.481 367.626 428.942C366.087 427.404 365.222 425.318 365.22 423.142V300.353C365.222 298.178 366.087 296.092 367.626 294.553C369.164 293.015 371.251 292.15 373.427 292.148H496.24C498.416 292.152 500.501 293.017 502.039 294.555C503.578 296.093 504.443 298.178 504.446 300.353V423.142ZM437.929 431.347C437.886 431.918 437.842 432.497 437.799 433.076H475.062C475.131 432.506 475.209 431.927 475.278 431.347H437.929Z" fill="#3F3D56"/>
    <path d="M412.682 483.223H127.311C125.476 483.223 123.717 482.494 122.419 481.197C121.122 479.9 120.393 478.14 120.393 476.306C120.393 474.472 121.122 472.712 122.419 471.415C123.717 470.118 125.476 469.389 127.311 469.389H412.682C414.517 469.389 416.277 470.118 417.574 471.415C418.872 472.712 419.6 474.472 419.6 476.306C419.6 478.14 418.872 479.9 417.574 481.197C416.277 482.494 414.517 483.223 412.682 483.223Z" fill="#8ED16F"/>
    <path d="M332.692 254.106H207.301C205.467 254.106 203.707 253.378 202.41 252.08C201.112 250.783 200.383 249.024 200.383 247.19C200.383 245.355 201.112 243.596 202.41 242.299C203.707 241.002 205.467 240.273 207.301 240.273H332.692C334.527 240.273 336.286 241.002 337.584 242.299C338.881 243.596 339.61 245.355 339.61 247.19C339.61 249.024 338.881 250.783 337.584 252.08C336.286 253.378 334.527 254.106 332.692 254.106Z" fill="#6C63FF"/>
    <path d="M117.686 365.184C118.405 365.893 119.356 366.319 120.364 366.383C121.372 366.448 122.37 366.147 123.174 365.535C128.179 361.825 132.574 357.207 135.175 351.575C138.155 345.121 138.487 337.201 134.894 331.066C131.857 325.881 126.493 322.535 121.148 319.787C119.072 318.616 116.837 317.754 114.512 317.23C112.162 316.712 109.703 317.108 107.636 318.339C106.624 318.973 105.827 319.897 105.349 320.991C104.871 322.085 104.733 323.297 104.954 324.47C102.387 321.541 99.0982 319.334 95.4145 318.067C93.0949 317.16 90.5549 316.976 88.1286 317.539C84.7365 318.501 82.2601 321.514 80.9057 324.769C79.8103 327.245 79.432 329.978 79.814 332.658C80.0149 333.992 80.4937 335.268 81.2192 336.405C81.9448 337.542 82.9009 338.515 84.0259 339.259C86.8304 340.994 90.4083 340.869 93.6291 340.16C96.85 339.451 99.9677 338.218 103.251 337.907C106.534 337.595 110.19 338.413 112.188 341.037C113.595 342.884 113.957 345.298 114.272 347.598L115.915 359.563C116.05 361.294 116.492 362.987 117.221 364.563C117.347 364.79 117.504 364.999 117.686 365.184Z" fill="#2F2E41"/>
    </g>
    <defs>
    <clipPath id="clip0_62_926">
    <rect width="540" height="531" fill="white"/>
    </clipPath>
    </defs>
    </svg>
    