<svg width="526" height="381" viewBox="0 0 526 381" fill="none" xmlns="http://www.w3.org/2000/svg">
    <g clip-path="url(#clip0_62_882)">
    <path d="M139.716 281.383C62.676 281.383 0 219.588 0 143.63C0 67.6735 62.676 5.8783 139.716 5.8783C162.1 5.90097 184.153 11.2146 204.026 21.3738C223.898 31.5329 241.01 46.2414 253.928 64.266L252.606 65.1868C239.838 47.3705 222.924 32.832 203.282 22.7903C183.639 12.7485 161.841 7.4962 139.716 7.47373C63.5688 7.47373 1.61818 68.5538 1.61818 143.63C1.61818 218.707 63.5688 279.787 139.716 279.787C160.928 279.855 181.867 275.074 200.889 265.818C219.91 256.562 236.496 243.084 249.344 226.442L250.627 227.413C237.629 244.249 220.849 257.885 201.605 267.25C182.361 276.614 161.176 281.452 139.716 281.383Z" fill="#9E8AFC"/>
    <path d="M197.476 120.562C195.945 120.562 194.447 120.115 193.174 119.276C191.9 118.437 190.907 117.244 190.321 115.849C189.735 114.453 189.582 112.918 189.881 111.437C190.179 109.956 190.917 108.595 192 107.527C193.083 106.459 194.463 105.732 195.965 105.438C197.468 105.143 199.025 105.294 200.44 105.872C201.855 106.45 203.065 107.429 203.916 108.684C204.767 109.94 205.221 111.416 205.221 112.927C205.221 114.952 204.405 116.894 202.953 118.326C201.5 119.758 199.53 120.562 197.476 120.562Z" fill="#9E8AFC"/>
    <path d="M200.177 114.525L198.557 112.927L200.177 111.329C200.249 111.259 200.305 111.176 200.344 111.084C200.383 110.993 200.403 110.895 200.403 110.796C200.403 110.697 200.383 110.598 200.345 110.507C200.307 110.415 200.25 110.332 200.179 110.262C200.108 110.192 200.024 110.136 199.931 110.098C199.838 110.061 199.738 110.041 199.638 110.041C199.537 110.041 199.438 110.061 199.345 110.099C199.252 110.137 199.168 110.193 199.097 110.264L197.476 111.861L195.856 110.264C195.712 110.122 195.518 110.043 195.315 110.043C195.113 110.043 194.919 110.122 194.775 110.264C194.632 110.405 194.552 110.596 194.552 110.796C194.552 110.996 194.632 111.188 194.775 111.329L196.396 112.927L194.775 114.524C194.633 114.666 194.553 114.857 194.553 115.057C194.554 115.256 194.634 115.447 194.777 115.588C194.92 115.729 195.114 115.808 195.316 115.809C195.518 115.809 195.712 115.73 195.856 115.59L197.476 113.992L199.097 115.59C199.168 115.66 199.252 115.715 199.345 115.753C199.437 115.791 199.537 115.81 199.637 115.81C199.737 115.81 199.837 115.791 199.929 115.753C200.022 115.715 200.106 115.66 200.177 115.59C200.248 115.52 200.305 115.437 200.343 115.345C200.381 115.254 200.401 115.156 200.401 115.057C200.401 114.958 200.381 114.86 200.343 114.769C200.305 114.677 200.248 114.594 200.177 114.525Z" fill="white"/>
    <path d="M158.96 30.3911C167.472 30.3911 174.372 23.5878 174.372 15.1955C174.372 6.80328 167.472 0 158.96 0C150.448 0 143.548 6.80328 143.548 15.1955C143.548 23.5878 150.448 30.3911 158.96 30.3911Z" fill="#9E8AFC"/>
    <path d="M156.858 23.1042C156.591 23.1042 156.329 23.0431 156.091 22.9257C155.853 22.8083 155.646 22.6379 155.486 22.4279L151.282 16.9004C151.146 16.7228 151.048 16.5207 150.992 16.3057C150.936 16.0907 150.924 15.8669 150.956 15.6472C150.988 15.4274 151.063 15.216 151.178 15.0251C151.293 14.8341 151.444 14.6672 151.625 14.534C151.805 14.4008 152.01 14.304 152.228 14.2489C152.446 14.1938 152.673 14.1816 152.896 14.213C153.118 14.2444 153.333 14.3188 153.527 14.4319C153.72 14.545 153.89 14.6946 154.025 14.8722L156.775 18.4881L163.841 8.03944C164.094 7.66968 164.486 7.41385 164.93 7.32776C165.374 7.24167 165.835 7.33232 166.212 7.57992C166.589 7.82752 166.851 8.21198 166.941 8.64939C167.031 9.0868 166.942 9.54165 166.694 9.91469L158.284 22.3514C158.132 22.5763 157.928 22.762 157.688 22.8929C157.448 23.0238 157.179 23.096 156.905 23.1036L156.858 23.1042Z" fill="white"/>
    <path d="M177.832 42.6097H140.769C138.504 42.6097 136.668 44.4203 136.668 46.6538V48.1092C136.668 50.3427 138.504 52.1532 140.769 52.1532H177.832C180.097 52.1532 181.933 50.3427 181.933 48.1092V46.6538C181.933 44.4203 180.097 42.6097 177.832 42.6097Z" fill="#9E8AFC"/>
    <path d="M200.82 61.6968H117.78C115.515 61.6968 113.679 63.5074 113.679 65.7408V67.1962C113.679 69.4297 115.515 71.2403 117.78 71.2403H200.82C203.086 71.2403 204.922 69.4297 204.922 67.1962V65.7408C204.922 63.5074 203.086 61.6968 200.82 61.6968Z" fill="#9E8AFC"/>
    <path d="M200.82 80.7837H117.78C115.515 80.7837 113.679 82.5943 113.679 84.8277V86.2831C113.679 88.5166 115.515 90.3272 117.78 90.3272H200.82C203.086 90.3272 204.922 88.5166 204.922 86.2831V84.8277C204.922 82.5943 203.086 80.7837 200.82 80.7837Z" fill="#9E8AFC"/>
    <path d="M150.312 284.292C148.78 284.292 147.283 283.844 146.009 283.005C144.735 282.166 143.743 280.974 143.157 279.578C142.57 278.183 142.417 276.648 142.716 275.167C143.015 273.685 143.752 272.325 144.835 271.257C145.919 270.189 147.298 269.462 148.801 269.167C150.303 268.873 151.86 269.024 153.275 269.602C154.691 270.18 155.9 271.158 156.751 272.414C157.602 273.67 158.056 275.146 158.056 276.656C158.056 278.681 157.24 280.624 155.788 282.056C154.336 283.488 152.366 284.292 150.312 284.292Z" fill="#9E8AFC"/>
    <path d="M153.013 278.254L151.392 276.656L153.013 275.059C153.156 274.917 153.236 274.726 153.236 274.526C153.236 274.326 153.156 274.135 153.013 273.993C152.869 273.852 152.675 273.773 152.473 273.773C152.27 273.773 152.076 273.852 151.932 273.993L150.312 275.591L148.691 273.993C148.548 273.852 148.353 273.773 148.151 273.773C147.948 273.773 147.754 273.852 147.611 273.993C147.467 274.135 147.387 274.326 147.387 274.526C147.387 274.726 147.467 274.917 147.611 275.059L149.231 276.656L147.611 278.254C147.467 278.395 147.387 278.587 147.387 278.787C147.387 278.987 147.467 279.178 147.611 279.319C147.754 279.461 147.948 279.54 148.151 279.54C148.354 279.54 148.548 279.461 148.691 279.319L150.312 277.722L151.932 279.319C152.076 279.461 152.27 279.54 152.473 279.54C152.675 279.54 152.869 279.461 153.013 279.319C153.156 279.178 153.236 278.987 153.236 278.787C153.236 278.587 153.156 278.395 153.013 278.254Z" fill="white"/>
    <path d="M111.796 194.121C120.307 194.121 127.208 187.318 127.208 178.925C127.208 170.533 120.307 163.73 111.796 163.73C103.284 163.73 96.3834 170.533 96.3834 178.925C96.3834 187.318 103.284 194.121 111.796 194.121Z" fill="#9E8AFC"/>
    <path d="M109.693 186.834C109.427 186.834 109.164 186.773 108.926 186.655C108.688 186.538 108.481 186.368 108.322 186.158L104.117 180.63C103.982 180.453 103.884 180.25 103.828 180.035C103.772 179.82 103.76 179.597 103.791 179.377C103.823 179.157 103.899 178.946 104.013 178.755C104.128 178.564 104.28 178.397 104.46 178.264C104.64 178.131 104.845 178.034 105.063 177.979C105.281 177.924 105.508 177.911 105.731 177.943C105.954 177.974 106.168 178.048 106.362 178.162C106.556 178.275 106.725 178.424 106.86 178.602L109.611 182.218L116.676 171.769C116.8 171.583 116.96 171.423 117.148 171.298C117.335 171.173 117.545 171.085 117.767 171.041C117.989 170.997 118.217 170.996 118.439 171.039C118.661 171.082 118.872 171.167 119.06 171.291C119.248 171.415 119.409 171.574 119.535 171.759C119.66 171.945 119.747 172.153 119.791 172.371C119.835 172.59 119.834 172.815 119.789 173.034C119.744 173.252 119.656 173.46 119.529 173.644L111.12 186.081C110.968 186.306 110.763 186.492 110.523 186.623C110.283 186.753 110.015 186.826 109.741 186.833L109.693 186.834Z" fill="white"/>
    <path d="M130.667 206.339H93.6046C91.3393 206.339 89.5029 208.15 89.5029 210.384V211.839C89.5029 214.072 91.3393 215.883 93.6046 215.883H130.667C132.932 215.883 134.769 214.072 134.769 211.839V210.384C134.769 208.15 132.932 206.339 130.667 206.339Z" fill="#9E8AFC"/>
    <path d="M153.656 225.427H70.6158C68.3505 225.427 66.5141 227.237 66.5141 229.471V230.926C66.5141 233.159 68.3505 234.97 70.6158 234.97H153.656C155.921 234.97 157.757 233.159 157.757 230.926V229.471C157.757 227.237 155.921 225.427 153.656 225.427Z" fill="#9E8AFC"/>
    <path d="M153.656 244.514H70.6158C68.3505 244.514 66.5141 246.324 66.5141 248.558V250.013C66.5141 252.246 68.3505 254.057 70.6158 254.057H153.656C155.921 254.057 157.757 252.246 157.757 250.013V248.558C157.757 246.324 155.921 244.514 153.656 244.514Z" fill="#9E8AFC"/>
    <path d="M310.52 251.713C308.405 251.713 306.337 251.095 304.578 249.936C302.82 248.778 301.449 247.131 300.639 245.204C299.83 243.277 299.618 241.157 300.031 239.112C300.443 237.067 301.462 235.188 302.958 233.713C304.453 232.238 306.359 231.234 308.434 230.827C310.508 230.421 312.658 230.629 314.613 231.427C316.567 232.225 318.237 233.577 319.412 235.311C320.587 237.045 321.215 239.084 321.215 241.169C321.215 243.966 320.088 246.648 318.082 248.625C316.077 250.602 313.356 251.713 310.52 251.713Z" fill="#9E8AFC"/>
    <path d="M314.25 243.376L312.012 241.169L314.25 238.963C314.448 238.768 314.559 238.503 314.559 238.227C314.559 237.951 314.448 237.687 314.25 237.492C314.052 237.297 313.784 237.187 313.504 237.187C313.224 237.187 312.956 237.297 312.758 237.492L310.52 239.698L308.282 237.492C308.084 237.297 307.816 237.187 307.536 237.187C307.256 237.187 306.988 237.297 306.79 237.492C306.592 237.687 306.481 237.951 306.481 238.227C306.481 238.503 306.592 238.768 306.79 238.963L309.028 241.169L306.79 243.376C306.592 243.571 306.481 243.835 306.481 244.111C306.481 244.387 306.592 244.652 306.79 244.847C306.988 245.042 307.256 245.151 307.536 245.151C307.816 245.151 308.084 245.042 308.282 244.847L310.52 242.64L312.758 244.847C312.956 245.042 313.224 245.151 313.504 245.151C313.784 245.151 314.052 245.042 314.25 244.847C314.448 244.652 314.559 244.387 314.559 244.111C314.559 243.835 314.448 243.571 314.25 243.376L314.25 243.376Z" fill="white"/>
    <path d="M263.924 127.195C275.679 127.195 285.207 117.801 285.207 106.212C285.207 94.6229 275.679 85.2283 263.924 85.2283C252.17 85.2283 242.642 94.6229 242.642 106.212C242.642 117.801 252.17 127.195 263.924 127.195Z" fill="#6C63FF"/>
    <path d="M261.021 117.133C260.653 117.133 260.291 117.048 259.962 116.886C259.634 116.724 259.348 116.489 259.127 116.199L253.321 108.566C253.135 108.321 252.999 108.042 252.922 107.745C252.844 107.448 252.827 107.139 252.871 106.835C252.915 106.532 253.02 106.24 253.178 105.976C253.336 105.713 253.546 105.482 253.795 105.298C254.043 105.114 254.326 104.981 254.627 104.905C254.929 104.828 255.242 104.812 255.55 104.855C255.858 104.898 256.154 105.001 256.421 105.157C256.689 105.313 256.922 105.52 257.109 105.765L260.908 110.759L270.664 96.3299C270.836 96.0747 271.058 95.8556 271.316 95.6849C271.575 95.5143 271.865 95.3955 272.169 95.3353C272.474 95.2751 272.788 95.2748 273.093 95.3343C273.398 95.3937 273.689 95.5119 273.947 95.6819C274.206 95.852 274.428 96.0707 274.601 96.3254C274.774 96.5802 274.895 96.866 274.956 97.1667C275.017 97.4673 275.017 97.7768 274.956 98.0776C274.896 98.3783 274.776 98.6644 274.604 98.9194L262.991 116.093C262.781 116.404 262.498 116.66 262.167 116.841C261.836 117.022 261.465 117.122 261.087 117.132C261.065 117.132 261.043 117.133 261.021 117.133Z" fill="white"/>
    <path d="M291.546 144.068H237.242C234.977 144.068 233.14 145.879 233.14 148.112V153.203C233.14 155.436 234.977 157.247 237.242 157.247H291.546C293.812 157.247 295.648 155.436 295.648 153.203V148.112C295.648 145.879 293.812 144.068 291.546 144.068Z" fill="#3F3D56"/>
    <path d="M323.292 170.426H205.497C203.231 170.426 201.395 172.236 201.395 174.47V179.56C201.395 181.794 203.231 183.604 205.497 183.604H323.292C325.557 183.604 327.393 181.794 327.393 179.56V174.47C327.393 172.236 325.557 170.426 323.292 170.426Z" fill="#3F3D56"/>
    <path d="M323.292 196.783H205.497C203.231 196.783 201.395 198.593 201.395 200.827V205.917C201.395 208.151 203.231 209.961 205.497 209.961H323.292C325.557 209.961 327.393 208.151 327.393 205.917V200.827C327.393 198.593 325.557 196.783 323.292 196.783Z" fill="#3F3D56"/>
    <path d="M364.637 369.852L354.316 369.851L349.406 330.601L364.64 330.602L364.637 369.852Z" fill="#FFB6B6"/>
    <path d="M364.362 366.528L353.342 362.109L353.027 361.981L346.942 366.528C343.507 366.529 340.213 367.875 337.783 370.27C335.354 372.665 333.989 375.913 333.989 379.3V379.715H367.267V366.528H364.362Z" fill="#2F2E41"/>
    <path d="M451.873 361.328L442.017 364.348L425.513 328.302L440.06 323.846L451.873 361.328Z" fill="#FFB6B6"/>
    <path d="M450.609 358.235L438.756 357.239L438.416 357.21L433.975 363.332C430.694 364.338 427.953 366.587 426.354 369.585C424.756 372.583 424.43 376.084 425.449 379.318L425.574 379.715L457.352 369.977L453.383 357.385L450.609 358.235Z" fill="#2F2E41"/>
    <path d="M410.577 168.786L414.775 180.557V186.92L414.19 193.917L420.687 217.253L425.784 268.712L451.433 344.888L431.766 350.472L381.554 226.009L365.695 351.899L347.71 351.426C347.71 351.426 344.633 344.09 345.442 340.101C346.251 336.113 346.251 340.899 346.251 336.113C346.251 331.327 342.743 333.406 345.306 329.574C347.869 325.743 347.55 322.388 347.71 320.077C347.869 317.765 346.251 224.432 346.251 221.241C346.251 218.05 345.69 218.749 345.971 215.608C346.251 212.466 349.807 213.758 348.838 208.326C347.869 202.894 347.55 203.843 347.71 199.779C347.869 195.714 350.099 171.883 350.099 171.883L410.577 168.786Z" fill="#2F2E41"/>
    <path d="M343.266 172.615L379.321 138.333L389.314 110.436L374.574 104.116C367.003 111.267 358.818 133.539 358.818 133.539L334.008 164.661C333.814 164.726 333.621 164.795 333.431 164.878C332.314 165.364 331.342 166.126 330.61 167.09C329.879 168.054 329.412 169.188 329.255 170.382C329.097 171.577 329.255 172.79 329.713 173.907C330.171 175.023 330.913 176.004 331.867 176.755C332.822 177.506 333.957 178.002 335.163 178.194C336.368 178.386 337.604 178.268 338.75 177.852C339.896 177.436 340.914 176.735 341.705 175.818C342.496 174.901 343.034 173.797 343.266 172.615Z" fill="#FFB8B8"/>
    <path d="M370.426 107.231L389.123 113.083L389.194 113.072C396.153 111.922 401.927 100.716 405.546 91.518C406.736 88.484 406.714 85.1174 405.483 82.0989C404.253 79.0804 401.906 76.6352 398.917 75.2576C396.705 74.256 394.253 73.8844 391.838 74.1848C389.423 74.4852 387.141 75.4456 385.251 76.9575L375.65 84.6925L370.426 107.231Z" fill="#6C63FF"/>
    <path d="M413.754 183.907L413.863 183.764C419.697 176.136 411.718 157.246 410.512 154.507L415.936 152.922L414.991 142.74L414.535 138.2L418.753 134.251L418.767 134.15L421.667 113.799L425.462 100.33C426.892 95.2385 426.923 89.863 425.55 84.7557C424.177 79.6485 421.45 74.9935 417.649 71.2686L409.891 63.6744L400.597 49.3308L385.013 48.9341L379.41 58.7489C374.198 59.7975 369.525 62.6154 366.205 66.7117C362.884 70.8079 361.126 75.923 361.237 81.1658L361.765 107.295L356.173 139.669L356.016 145.549L350.528 151.259L351.543 157.032L347.437 158.644L345.428 166.847C344.661 167.794 339.595 174.107 339.549 175.867C339.542 176.131 339.733 176.392 340.15 176.686C343.429 178.999 361.757 184.011 370.006 180.998C378.792 177.791 413.228 183.814 413.575 183.875L413.754 183.907Z" fill="#6C63FF"/>
    <path d="M375.553 101.077L367.593 85.4296C356.038 86.2077 333.106 99.3795 333.106 99.3795L289.718 108.45C288.432 107.962 287.039 107.818 285.679 108.03C284.319 108.242 283.04 108.804 281.97 109.659C280.9 110.514 280.078 111.631 279.585 112.899C279.092 114.167 278.947 115.54 279.164 116.881C279.381 118.222 279.953 119.482 280.821 120.536C281.689 121.59 282.824 122.4 284.11 122.884C285.397 123.368 286.79 123.509 288.149 123.294C289.509 123.078 290.787 122.514 291.855 121.656L347.048 117.756L375.553 101.077Z" fill="#FFB8B8"/>
    <path d="M372.342 103.646L393.132 88.4136L396.794 75.4023C397.503 72.8453 397.473 70.1437 396.707 67.6027C395.941 65.0617 394.469 62.7826 392.459 61.0229C389.716 58.6557 386.165 57.4035 382.522 57.5193C378.879 57.6352 375.417 59.1106 372.835 61.6472C365.012 69.3463 356.089 80.0874 358.005 87.5355L358.025 87.611L372.342 103.646Z" fill="#6C63FF"/>
    <path d="M393.318 45.3776C403.528 45.3776 411.805 37.2171 411.805 27.1507C411.805 17.0843 403.528 8.92383 393.318 8.92383C383.108 8.92383 374.832 17.0843 374.832 27.1507C374.832 37.2171 383.108 45.3776 393.318 45.3776Z" fill="#FFB8B8"/>
    <path d="M405.484 46.2128C402.392 44.7808 398.78 45.6511 395.367 45.7835C391.953 45.916 387.817 44.6472 387.093 41.3555C386.557 38.9216 388.167 36.254 387.153 33.9731C386.047 31.4857 382.727 31.1317 380.064 30.4353C376.727 29.4845 373.783 27.5098 371.661 24.7978C369.539 22.0858 368.349 18.7776 368.264 15.3534C368.079 16.7125 370.438 17.1589 371.212 16.0201C371.987 14.8813 371.453 13.3051 370.599 12.223C369.745 11.1409 368.592 10.2768 367.948 9.06151C367.304 7.84626 367.429 6.04146 368.687 5.45662C369.331 6.73964 370.245 7.87333 371.366 8.7829C372.488 9.69248 373.792 10.3573 375.193 10.7334C374.621 9.01978 375.43 7.09319 376.732 5.82569C378.116 4.63813 379.709 3.71268 381.434 3.0959C385.695 1.2746 390.671 -0.537793 394.797 1.56356C395.863 2.11639 396.788 2.89939 397.503 3.85408C398.218 4.80877 398.706 5.91048 398.928 7.07691C406.562 7.7133 414.401 15.8661 413.966 23.4071C413.498 31.5252 413.157 32.182 406.303 45.843" fill="#2F2E41"/>
    <path d="M498.091 380.182H471.241L471.125 379.976C470.782 379.362 470.45 378.711 470.141 378.043C467.375 372.205 466.206 365.528 465.174 359.637L464.398 355.197C464.304 354.659 464.374 354.106 464.601 353.608C464.828 353.11 465.2 352.69 465.67 352.402C466.14 352.114 466.687 351.971 467.24 351.991C467.793 352.011 468.327 352.193 468.775 352.514C472.855 355.442 476.938 358.367 481.021 361.289C482.568 362.398 484.334 363.682 486.025 365.069C486.188 364.288 486.359 363.504 486.529 362.731C486.647 362.198 486.924 361.711 487.324 361.333C487.723 360.955 488.229 360.704 488.774 360.611C489.32 360.518 489.882 360.587 490.387 360.811C490.892 361.034 491.319 361.401 491.611 361.865L494.753 366.841C497.044 370.476 499.066 374.057 498.654 377.919C498.656 377.966 498.653 378.013 498.644 378.059C498.561 378.694 498.408 379.317 498.188 379.919L498.091 380.182Z" fill="#F0F0F0"/>
    <path d="M525.042 380.755L269.889 381C269.635 380.999 269.391 380.898 269.211 380.72C269.032 380.542 268.931 380.301 268.931 380.05C268.931 379.799 269.032 379.558 269.211 379.38C269.391 379.202 269.635 379.102 269.889 379.1L525.042 378.855C525.296 378.856 525.54 378.957 525.72 379.135C525.899 379.313 526 379.554 526 379.805C526 380.056 525.899 380.297 525.72 380.475C525.54 380.653 525.296 380.754 525.042 380.755Z" fill="#CACACA"/>
    </g>
    <defs>
    <clipPath id="clip0_62_882">
    <rect width="526" height="381" fill="white"/>
    </clipPath>
    </defs>
    </svg>
    