<svg width="647" height="392" viewBox="0 0 647 392" fill="none" xmlns="http://www.w3.org/2000/svg">
<g clip-path="url(#clip0_2_26)">
<path opacity="0.1" d="M647 256.191C647.035 276.557 641.925 296.543 632.228 313.963C632.228 335.268 623.1 354.578 608.293 368.652C604.587 372.17 600.597 375.317 596.371 378.055C596.201 378.172 596.026 378.283 595.851 378.394C595.534 378.597 595.217 378.8 594.895 379.009L594.595 379.2C593.244 380.031 591.864 380.831 590.455 381.582C577.478 388.525 563.201 392.105 548.74 392.043H122.823C119.429 392.043 116.066 391.895 112.733 391.6C100.888 390.585 89.249 387.652 78.1999 382.898C76.0432 381.971 73.928 380.974 71.8543 379.908C70.8665 379.403 69.8881 378.884 68.9191 378.351C68.3139 378.018 67.7088 377.674 67.1093 377.329C63.4718 375.225 59.9482 372.895 56.5559 370.351C53.4557 368.042 50.4727 365.552 47.6201 362.892C28.3741 344.923 16.4691 320.055 16.4691 292.615C5.68137 274.54 -0.040826 253.441 -4.35491e-06 231.889C-4.35491e-06 170.88 44.8149 121.422 100.104 121.422C101.801 121.422 103.497 121.477 105.194 121.575C105.437 121.575 105.675 121.575 105.918 121.612C115.238 104.326 127.698 88.4431 142.679 74.4615C183.535 36.3692 243.247 12.3569 309.763 12.3569C365.651 12.3569 416.738 29.3108 455.869 57.3231C470.697 48.2024 487.446 43.4211 504.479 43.4462C559.757 43.4462 604.583 92.9046 604.583 153.914C604.575 157.774 604.386 161.631 604.017 165.471C617.342 175.734 628.203 189.334 635.684 205.123C643.165 220.912 647.046 238.427 647 256.191Z" fill="#6C63FF"/>
<path opacity="0.1" d="M515.049 168.597V161.994C519.796 159.897 523.725 156.07 526.163 151.168C528.602 146.266 529.399 140.594 528.417 135.123C527.435 129.652 524.736 124.723 520.782 121.179C516.828 117.635 511.864 115.697 506.741 115.697C501.618 115.697 496.655 117.635 492.701 121.179C488.746 124.723 486.047 129.652 485.066 135.123C484.084 140.594 484.88 146.266 487.319 151.168C489.758 156.07 493.687 159.897 498.433 161.994V168.597C492.9 170.271 487.9 173.578 483.989 178.154C479.846 171.391 473.608 166.472 466.411 164.295V157.686C471.158 155.589 475.087 151.762 477.525 146.86C479.964 141.958 480.761 136.286 479.779 130.815C478.797 125.344 476.098 120.415 472.144 116.871C468.189 113.328 463.226 111.39 458.103 111.39C452.98 111.39 448.017 113.328 444.063 116.871C440.108 120.415 437.409 125.344 436.427 130.815C435.446 136.286 436.242 141.958 438.681 146.86C441.12 151.762 445.049 155.589 449.795 157.686V164.289C444.875 165.775 440.367 168.557 436.668 172.388C432.542 166.36 426.691 161.996 420.035 159.982V153.378C424.782 151.282 428.711 147.454 431.149 142.552C433.588 137.65 434.385 131.978 433.403 126.508C432.421 121.037 429.722 116.107 425.768 112.564C421.814 109.02 416.85 107.082 411.727 107.082C406.604 107.082 401.641 109.02 397.687 112.564C393.732 116.107 391.033 121.037 390.052 126.508C389.07 131.978 389.866 137.65 392.305 142.552C394.744 147.454 398.673 151.282 403.419 153.378V159.982C397.758 161.698 392.66 165.125 388.715 169.865C386.956 164.959 384.172 160.566 380.582 157.035C376.992 153.503 372.695 150.93 368.032 149.52V142.917C372.779 140.82 376.708 136.993 379.146 132.091C381.585 127.189 382.382 121.517 381.4 116.046C380.418 110.575 377.719 105.646 373.765 102.102C369.81 98.5583 364.847 96.6206 359.724 96.6206C354.601 96.6206 349.638 98.5583 345.684 102.102C341.729 105.646 339.03 110.575 338.048 116.046C337.067 121.517 337.863 127.189 340.302 132.091C342.741 136.993 346.669 140.82 351.416 142.917V149.52C345.356 151.356 339.949 155.148 335.91 160.397C331.871 165.645 329.39 172.103 328.794 178.917C325.939 176.761 322.771 175.144 319.422 174.135V167.532C324.169 165.435 328.098 161.608 330.536 156.706C332.975 151.804 333.772 146.132 332.79 140.661C331.808 135.191 329.109 130.261 325.155 126.717C321.201 123.174 316.237 121.236 311.114 121.236C305.991 121.236 301.028 123.174 297.074 126.717C293.119 130.261 290.42 135.191 289.438 140.661C288.457 146.132 289.253 151.804 291.692 156.706C294.131 161.608 298.06 165.435 302.806 167.532V174.135C298.582 175.415 294.653 177.65 291.275 180.693C287.898 183.736 285.147 187.52 283.204 191.797C280.583 189.965 277.723 188.575 274.72 187.674V181.071C279.467 178.974 283.396 175.147 285.835 170.245C288.273 165.343 289.07 159.671 288.088 154.2C287.106 148.729 284.407 143.8 280.453 140.256C276.499 136.712 271.535 134.774 266.412 134.774C261.29 134.774 256.326 136.712 252.372 140.256C248.418 143.8 245.718 148.729 244.737 154.2C243.755 159.671 244.552 165.343 246.99 170.245C249.429 175.147 253.358 178.974 258.104 181.071V187.674C255.271 188.525 252.564 189.814 250.068 191.502C248.111 187.294 245.37 183.577 242.019 180.587C238.668 177.597 234.782 175.4 230.607 174.135V167.532C235.353 165.435 239.282 161.608 241.721 156.706C244.16 151.804 244.956 146.132 243.975 140.661C242.993 135.191 240.294 130.261 236.339 126.717C232.385 123.174 227.422 121.236 222.299 121.236C217.176 121.236 212.212 123.174 208.258 126.717C204.304 130.261 201.605 135.191 200.623 140.661C199.641 146.132 200.438 151.804 202.877 156.706C205.315 161.608 209.244 165.435 213.991 167.532V174.135C209.498 175.495 205.342 177.935 201.831 181.275C198.32 184.615 195.543 188.77 193.704 193.434C190.541 190.792 186.941 188.837 183.1 187.674V181.071C187.846 178.974 191.775 175.147 194.214 170.245C196.653 165.343 197.449 159.671 196.468 154.2C195.486 148.729 192.787 143.8 188.832 140.256C184.878 136.712 179.915 134.774 174.792 134.774C169.669 134.774 164.705 136.712 160.751 140.256C156.797 143.8 154.098 148.729 153.116 154.2C152.134 159.671 152.931 165.343 155.37 170.245C157.808 175.147 161.737 178.974 166.484 181.071V187.674C159.929 189.651 154.151 193.91 150.033 199.801C145.916 205.692 143.686 212.888 143.686 220.289V372.905H205.864V359.366H235.273V372.905H297.484V359.366H342.163V334.751H380.621V345.212H426.997V349.52H475.635V353.828H537.847V201.212C537.847 193.811 535.617 186.615 531.5 180.724C527.382 174.833 521.604 170.574 515.049 168.597Z" fill="#6C63FF"/>
<path d="M277.565 104H329.274C341.922 103.999 354.445 106.709 366.13 111.975C377.815 117.24 388.432 124.959 397.375 134.689C406.318 144.42 413.412 155.972 418.252 168.686C423.092 181.4 425.583 195.026 425.583 208.788V350.769H181.262V208.788C181.262 180.996 191.408 154.343 209.468 134.692C227.529 115.04 252.024 104 277.565 104Z" fill="#2F2E41"/>
<path opacity="0.2" d="M283.221 109.711H323.619C336.266 109.71 348.79 112.42 360.474 117.685C372.159 122.951 382.776 130.67 391.719 140.4C400.663 150.131 407.757 161.683 412.597 174.397C417.437 187.11 419.928 200.737 419.928 214.498V345.052H186.917V214.498C186.917 186.707 197.064 160.054 215.124 140.402C233.184 120.751 257.68 109.711 283.221 109.711Z" fill="black"/>
<path d="M590.444 370.825V381.569C577.467 388.512 563.189 392.093 548.728 392.031H122.823C119.429 392.031 116.066 391.883 112.733 391.588C100.888 390.573 89.249 387.64 78.1999 382.886C76.0432 381.959 73.928 380.962 71.8543 379.895C70.8665 379.391 69.8881 378.872 68.9191 378.338C68.3139 378.006 67.7088 377.662 67.1093 377.317C63.4721 375.216 59.9485 372.89 56.5559 370.351V341.169C56.5559 336.452 58.278 331.929 61.3432 328.594C64.4084 325.258 68.5657 323.385 72.9006 323.385H543.011C546.965 323.393 550.783 324.96 553.756 327.797L584.862 357.458C586.614 359.125 588.019 361.18 588.981 363.485C589.944 365.79 590.443 368.293 590.444 370.825Z" fill="#2F2E41"/>
<path d="M272.979 138.96C260.646 139.846 248.36 141.282 236.121 143.268C232.643 143.834 229.114 144.462 225.941 146.135C223.475 147.54 221.203 149.313 219.188 151.403C210.103 160.259 202.788 171.053 197.697 183.114C194.547 190.591 192.285 198.498 189.315 206.037C178.745 232.96 159.573 254.978 148.414 281.618C145.999 287.385 143.963 293.403 143.154 299.674C142.317 306.16 143.268 313.729 148.165 317.52C150.428 319.262 153.176 319.982 155.868 320.597C189.757 328.763 224.041 334.855 258.557 338.843C254.818 334.917 253.569 328.831 254.061 323.206C254.553 317.582 256.583 312.265 258.585 307.052C239.051 302.363 219.565 297.44 200.129 292.283C197.228 291.514 193.744 290.068 193.387 286.843C193.206 285.2 193.953 283.618 194.688 282.172C202.978 265.84 212.918 250.565 224.324 236.634C224.324 253.902 223.537 273.403 223.537 290.677H406.835C404.631 280.821 403.335 270.751 402.967 260.615C402.113 227.532 412.349 194.702 409.691 161.686C409.442 158.64 409.058 155.502 407.593 152.892C405.065 148.388 400.02 146.523 395.383 144.985C377.601 139.102 359.447 133.151 340.863 133.612C335.337 133.754 329.834 134.455 324.343 135.163C307.608 137.311 289.793 137.748 272.979 138.96Z" fill="#6C63FF"/>
<path d="M187.132 337.428L200.48 383.908C200.565 384.202 200.734 384.459 200.963 384.642C201.192 384.825 201.468 384.923 201.752 384.923H259.026L245.453 330.769L188.297 335.551C188.098 335.569 187.905 335.635 187.733 335.745C187.561 335.855 187.413 336.005 187.301 336.185C187.189 336.365 187.116 336.571 187.087 336.786C187.058 337.001 187.073 337.22 187.132 337.428Z" fill="#656478"/>
<path d="M285.042 158.948C282.553 160.505 279.652 161.065 276.824 161.6L258.574 165.046C255.022 165.717 251.284 166.48 248.546 169.034C242.947 174.246 244.158 183.84 245.854 191.643L249.248 207.298C251.804 219.065 254.417 230.972 259.66 241.631C268.816 260.234 285.613 273.631 304.084 280.086C310.684 282.394 317.658 283.895 324.546 283.071C338.04 281.458 349.584 270.991 356.698 258.406C363.813 245.822 367.201 231.225 370.306 216.837C373.286 203.065 376.12 189.095 375.927 174.942C375.871 170.535 375.464 165.932 373.303 162.197C368.569 153.994 357.841 153.378 349.046 154.892C347.678 155.132 346.258 155.391 344.94 154.942C340.981 153.6 340.891 147.686 339.194 143.582C335.988 135.84 326.475 134.468 318.698 135.169C310.922 135.871 298.813 136.775 292.038 141.569C285.523 146.154 292.683 154.154 285.042 158.948Z" fill="#FBBEBE"/>
<path opacity="0.1" d="M285.042 158.948C282.553 160.505 279.652 161.065 276.824 161.6L258.574 165.046C255.022 165.717 251.284 166.48 248.546 169.034C242.947 174.246 244.158 183.84 245.854 191.643L249.248 207.298C251.804 219.065 254.417 230.972 259.66 241.631C268.816 260.234 285.613 273.631 304.084 280.086C310.684 282.394 317.658 283.895 324.546 283.071C338.04 281.458 349.584 270.991 356.698 258.406C363.813 245.822 367.201 231.225 370.306 216.837C373.286 203.065 376.12 189.095 375.927 174.942C375.871 170.535 375.464 165.932 373.303 162.197C368.569 153.994 357.841 153.378 349.046 154.892C347.678 155.132 346.258 155.391 344.94 154.942C340.981 153.6 340.891 147.686 339.194 143.582C335.988 135.84 326.475 134.468 318.698 135.169C310.922 135.871 298.813 136.775 292.038 141.569C285.523 146.154 292.683 154.154 285.042 158.948Z" fill="black"/>
<path d="M269.936 176.585C272.696 182.886 274.766 189.569 278.103 195.532C280.755 200.271 284.154 204.449 287.536 208.603C296.297 219.385 305.17 230.252 316.012 238.462C320.502 213.364 331.348 190.131 347.327 171.385C351.999 165.926 357.846 160.548 364.701 160.751C368.954 160.88 372.879 163.175 376.419 165.729C380.378 168.578 384.122 171.883 386.967 175.988C391.463 182.523 393.403 190.8 393.754 198.954C394.104 207.108 392.939 215.243 391.786 223.305L385.847 264.972C385.502 267.385 385.022 270.049 383.212 271.495C382.184 272.204 381.025 272.658 379.818 272.825C358.231 277.397 335.982 274.431 313.987 274.197C289.668 273.945 264.676 276.96 241.641 268.542C240.436 268.098 239.186 267.588 238.372 266.535C237.837 265.742 237.453 264.84 237.241 263.883C231.874 244.978 236.178 224.665 239.362 205.188C241.883 189.753 243.678 174.188 244.74 158.554C244.836 157.145 259.066 160.258 260.655 161.255C264.982 164.043 267.855 171.834 269.936 176.585Z" fill="#6C63FF"/>
<g opacity="0.2">
<path opacity="0.2" d="M94.3749 330.332C94.3749 330.615 94.3466 330.892 94.3184 331.163C92.1617 330.236 90.0465 329.239 87.9728 328.172C86.865 328.014 85.8347 327.467 85.0375 326.615C84.4324 326.283 83.8272 325.939 83.2277 325.594C83.3635 325.285 83.5165 324.984 83.6858 324.695C84.8509 322.689 86.6211 321.434 88.5723 321.502C90.5234 321.569 92.2145 322.942 93.2608 325.015C94.0609 326.648 94.4456 328.484 94.3749 330.332Z" fill="#3F3D56"/>
<path opacity="0.2" d="M94.6803 319.797C94.6418 321.643 94.1518 323.444 93.2608 325.015C92.0957 327.015 90.3255 328.271 88.3743 328.203L87.9728 328.172C86.865 328.014 85.8347 327.467 85.0375 326.615C84.4969 326.057 84.0408 325.409 83.6858 324.695C82.9054 323.057 82.5236 321.229 82.5771 319.384C82.6306 317.54 83.1174 315.741 83.9912 314.16C85.1563 312.154 86.9265 310.898 88.8777 310.966C90.8289 311.034 92.5199 312.406 93.5662 314.48C94.3664 316.113 94.751 317.948 94.6803 319.797Z" fill="#3F3D56"/>
<path opacity="0.2" d="M94.9855 309.278C95.1237 304.518 92.5278 300.567 89.1873 300.452C85.8468 300.337 83.0268 304.102 82.8886 308.862C82.7504 313.621 85.3463 317.572 88.6868 317.687C92.0273 317.802 94.8473 314.037 94.9855 309.278Z" fill="#3F3D56"/>
<path opacity="0.2" d="M95.2941 298.742C95.4323 293.983 92.8364 290.032 89.4959 289.917C86.1554 289.802 83.3354 293.567 83.1971 298.326C83.0589 303.085 85.6549 307.036 88.9954 307.151C92.3358 307.266 95.1559 303.501 95.2941 298.742Z" fill="#3F3D56"/>
<path opacity="0.2" d="M95.597 288.206C95.7352 283.447 93.1392 279.496 89.7988 279.381C86.4583 279.266 83.6383 283.031 83.5001 287.79C83.3618 292.55 85.9578 296.501 89.2982 296.616C92.6387 296.73 95.4588 292.966 95.597 288.206Z" fill="#3F3D56"/>
<path opacity="0.2" d="M68.9984 215.108C68.2019 213.934 67.4837 212.7 66.8492 211.415L82.8319 209.12L65.605 208.677C64.0697 204.714 63.2934 200.453 63.3235 196.153C63.3537 191.853 64.1896 187.604 65.7803 183.668L88.4706 197.477L67.6863 179.729C69.783 176.039 72.5564 172.859 75.8333 170.388C79.1102 167.917 82.8202 166.207 86.7315 165.366C90.6429 164.525 94.6717 164.571 98.5661 165.5C102.461 166.429 106.137 168.222 109.366 170.767C112.595 173.312 115.307 176.554 117.333 180.29C119.359 184.027 120.655 188.178 121.14 192.484C121.626 196.79 121.29 201.158 120.154 205.317C119.017 209.475 117.105 213.334 114.537 216.652C115.775 218.478 116.827 220.445 117.676 222.517L96.7108 233.495L118.954 226.215C120.356 231.243 120.583 236.571 119.615 241.718C118.647 246.865 116.515 251.668 113.412 255.692C116.642 260.461 118.574 266.122 118.986 272.029C119.398 277.936 118.273 283.85 115.741 289.094C113.209 294.338 109.372 298.701 104.668 301.683C99.964 304.665 94.5835 306.147 89.142 305.958C83.7006 305.769 78.4179 303.917 73.8982 300.615C69.3786 297.312 65.8046 292.692 63.585 287.283C61.3654 281.873 60.5899 275.894 61.3472 270.027C62.1045 264.161 64.364 258.645 67.8672 254.111C64.009 248.413 62.0229 241.47 62.2281 234.396C62.4332 227.323 64.8177 220.529 68.9984 215.108Z" fill="#6C63FF"/>
<path opacity="0.1" d="M120.181 236.382C119.982 243.461 117.591 250.259 113.395 255.674C116.63 260.44 118.566 266.101 118.982 272.009C119.398 277.917 118.277 283.833 115.747 289.08C113.217 294.327 109.381 298.693 104.678 301.678C99.9739 304.664 94.5927 306.148 89.15 305.961C83.7073 305.774 78.4229 303.924 73.9015 300.622C69.3801 297.32 65.8045 292.699 63.5839 287.289C61.3632 281.879 60.5872 275.898 61.3447 270.03C62.1022 264.163 64.3626 258.646 67.8671 254.111C64.1175 248.609 120.283 232.843 120.181 236.382Z" fill="black"/>
</g>
<path opacity="0.1" d="M38.4693 100.191C45.2255 100.191 50.7024 94.2313 50.7024 86.88C50.7024 79.5287 45.2255 73.5692 38.4693 73.5692C31.7132 73.5692 26.2363 79.5287 26.2363 86.88C26.2363 94.2313 31.7132 100.191 38.4693 100.191Z" fill="#6C63FF"/>
<path opacity="0.1" d="M89.4545 26.6215C96.2107 26.6215 101.688 20.6621 101.688 13.3108C101.688 5.95943 96.2107 0 89.4545 0C82.6984 0 77.2215 5.95943 77.2215 13.3108C77.2215 20.6621 82.6984 26.6215 89.4545 26.6215Z" fill="#6C63FF"/>
<path opacity="0.1" d="M85.309 86.16C96.6317 86.16 105.811 76.1725 105.811 63.8523C105.811 51.5321 96.6317 41.5446 85.309 41.5446C73.9863 41.5446 64.8075 51.5321 64.8075 63.8523C64.8075 76.1725 73.9863 86.16 85.309 86.16Z" fill="#6C63FF"/>
<path d="M307.099 165.846C333.336 165.846 354.606 142.703 354.606 114.154C354.606 85.605 333.336 62.4615 307.099 62.4615C280.861 62.4615 259.592 85.605 259.592 114.154C259.592 142.703 280.861 165.846 307.099 165.846Z" fill="#FBBEBE"/>
<path d="M287.802 12.72C275.128 14.4677 261.447 16.7754 252.488 26.6831C247.477 32.2215 244.542 39.6062 242.127 46.9169C238.383 58.3015 235.595 70.3015 236.472 82.3815C237.252 93.1877 240.928 104.24 237.953 114.591C236.585 119.354 233.898 123.514 231.811 127.951C227.943 136.191 226.122 145.428 225.455 154.652C224.991 160.997 225.081 167.526 226.999 173.538C229.04 179.938 233.022 185.385 235.544 191.575C239.277 200.72 239.65 211.009 239.939 221.009C240.227 231.009 240.47 240.942 240.685 250.905C240.821 257.169 240.832 263.877 237.648 269.102C249.406 263.975 261.328 258.745 271.389 250.375C281.451 242.006 289.595 229.938 290.895 216.228C291.947 205.114 288.498 194.16 285.523 183.465C278.17 157.003 273.42 128.794 278.77 101.772C280.698 92.0431 285.387 81.1815 294.385 79.3908C299.877 78.3015 305.357 81.0277 310.305 83.8462C322.001 90.5046 334.059 99.12 338.414 112.677C342.373 124.935 339.042 138.591 333.889 150.295C328.737 162 321.724 172.763 317.72 184.997C311.572 203.766 313.303 225.742 323.517 242.277C333.731 258.812 352.604 268.985 370.752 266.314C369.333 259.643 364.882 254.252 362.495 247.914C358.157 236.4 361.081 223.157 365.747 211.797C370.413 200.437 376.781 189.846 379.7 177.785C381.758 169.292 382.007 160.418 381.996 151.637C381.996 137.815 381.368 123.988 380.146 110.228C378.925 96.4677 377.058 82.5354 373.032 69.2985C369.797 58.6831 365.086 48.4185 358.039 40.2769C350.539 31.6062 340.778 25.7292 331.192 19.9692C325.457 16.5354 319.598 13.0585 313.162 11.7723C308.072 10.7569 302.721 9.31077 297.53 9.21846C294 9.16308 290.29 9.99385 287.802 12.72Z" fill="#434175"/>
<path d="M377.217 79.4394L346.653 72.987C345.764 72.7992 344.903 73.4314 344.73 74.399L330.087 156.523C329.914 157.491 330.495 158.427 331.385 158.615L361.949 165.067C362.838 165.255 363.699 164.623 363.871 163.655L378.515 81.5312C378.687 80.5636 378.106 79.6271 377.217 79.4394Z" fill="#656478"/>
<path d="M379.527 79.9272L348.963 73.4747C348.074 73.287 347.213 73.9192 347.041 74.8868L332.397 157.011C332.225 157.978 332.806 158.915 333.695 159.103L364.259 165.555C365.148 165.743 366.009 165.111 366.181 164.143L380.825 82.019C380.997 81.0514 380.416 80.1149 379.527 79.9272Z" fill="#3F3D56"/>
<path d="M363.206 95.7256C363.804 92.3725 363.257 89.4365 361.984 89.1678C360.712 88.8992 359.195 91.3997 358.598 94.7528C358 98.1059 358.547 101.042 359.819 101.311C361.092 101.579 362.608 99.0788 363.206 95.7256Z" fill="#6C63FF"/>
<path d="M370.441 123.692C368.948 120.818 367.354 117.846 364.837 116.006C363.39 115.041 361.835 114.282 360.21 113.748C354.73 111.662 349.159 109.557 343.362 109.225C342.418 109.175 341.338 109.225 340.721 110.012C339.454 111.631 341.462 113.834 343.198 114.812L357.009 122.597L344.279 121.132C342.429 120.917 339.794 121.465 339.93 123.483C340.02 124.806 341.355 125.526 342.508 125.945C350.681 129.022 360.126 131.434 364.599 139.483C358.638 138.868 352.547 138.252 346.705 139.68C345.104 140.074 343.447 140.683 342.401 142.055C341.355 143.428 341.236 145.748 342.554 146.837C343.368 147.495 344.465 147.514 345.483 147.452C349.629 147.237 353.882 146.338 357.863 147.625C361.845 148.911 365.38 153.452 364.005 157.711C367.534 158.055 371.708 157.711 374.972 156.055C378.569 154.209 378.484 150.738 378.263 146.554C377.794 138.357 374.055 130.708 370.441 123.692Z" fill="#FBBEBE"/>
<path opacity="0.1" d="M366.873 257.84C363.708 233.623 359.366 209.606 353.865 185.889C351.037 173.582 347.825 161.065 348.633 148.4C360.318 150.018 370.786 151.218 381.555 146.025C381.73 152.677 386.164 158.332 387.776 164.763C388.856 169.071 388.449 173.631 388.873 178.068C389.297 182.505 390.57 186.806 391.661 191.12C397.077 212.497 398.354 234.864 395.411 256.806C385.417 258.098 376.844 259.52 366.873 257.84Z" fill="black"/>
<path d="M365.176 257.84C362.011 233.623 357.669 209.606 352.168 185.889C349.34 173.582 346.128 161.065 346.937 148.4C358.621 150.018 369.09 151.218 379.858 146.025C380.033 152.677 384.467 158.332 386.079 164.763C387.159 169.071 386.752 173.631 387.176 178.068C387.6 182.505 388.873 186.806 389.965 191.12C395.38 212.497 396.657 234.864 393.714 256.806C383.721 258.098 375.147 259.52 365.176 257.84Z" fill="#6C63FF"/>
<path d="M201.695 377.705L207.232 228.246C207.32 225.87 208.255 223.625 209.839 221.987C211.423 220.349 213.531 219.446 215.716 219.471L434.316 221.748C435.474 221.761 436.617 222.034 437.674 222.551C438.731 223.067 439.678 223.816 440.456 224.75C441.234 225.684 441.826 226.782 442.195 227.977C442.564 229.172 442.703 230.437 442.601 231.692L431.052 374.874C430.871 377.125 429.93 379.224 428.41 380.765C426.891 382.306 424.9 383.18 422.824 383.218L210.241 387.218C209.097 387.24 207.96 387.006 206.902 386.533C205.843 386.059 204.884 385.356 204.084 384.465C203.284 383.574 202.66 382.515 202.249 381.353C201.838 380.19 201.65 378.949 201.695 377.705Z" fill="#3F3D56"/>
<path d="M323.783 299.692C329.093 299.692 333.397 294.182 333.397 287.385C333.397 280.587 329.093 275.077 323.783 275.077C318.473 275.077 314.168 280.587 314.168 287.385C314.168 294.182 318.473 299.692 323.783 299.692Z" fill="#6C63FF"/>
<path d="M529.364 278.929L528.911 283.151L521.559 351.372C502.392 365.914 487.484 351.938 487.354 351.372L478.09 282.831L477.564 278.929H529.364Z" fill="#3F3D56"/>
<path opacity="0.1" d="M529.364 278.929L528.911 283.151C507.318 296.812 484.283 286.178 478.09 282.831L477.564 278.929H529.364Z" fill="black"/>
<path d="M476.484 275.225V281.378C476.484 281.378 505.045 299.446 530.778 281.378V275.225H476.484Z" fill="#6C63FF"/>
<path d="M479.804 267.095C479.804 267.095 478.972 271.249 476.484 271.612V276.849H530.778V272.154C530.778 272.154 527.458 271.249 527.95 267.095H479.804Z" fill="#6C63FF"/>
<path d="M503.467 275.225C516.991 275.225 527.955 271.786 527.955 267.545C527.955 263.303 516.991 259.865 503.467 259.865C489.942 259.865 478.978 263.303 478.978 267.545C478.978 271.786 489.942 275.225 503.467 275.225Z" fill="#6C63FF"/>
<path opacity="0.1" d="M503.467 275.225C516.991 275.225 527.955 271.786 527.955 267.545C527.955 263.303 516.991 259.865 503.467 259.865C489.942 259.865 478.978 263.303 478.978 267.545C478.978 271.786 489.942 275.225 503.467 275.225Z" fill="black"/>
<path opacity="0.1" d="M524.964 267.095C524.964 270.172 515.677 272.695 504.213 272.695H503.602C495.905 272.634 489.254 271.465 485.861 269.717C484.328 268.929 483.457 268.037 483.457 267.095C483.457 265.532 485.833 264.117 489.678 263.102C494.457 261.965 499.339 261.426 504.23 261.495C515.677 261.495 524.964 264 524.964 267.095Z" fill="black"/>
<path opacity="0.1" d="M503.602 272.695C495.905 272.634 489.254 271.465 485.861 269.717L489.661 263.077L503.602 272.695Z" fill="black"/>
<path opacity="0.1" d="M481.913 267.526C481.619 267.458 481.229 267.569 481.172 267.889C481.165 268.052 481.204 268.214 481.285 268.351C481.934 269.466 482.876 270.343 483.989 270.868C484.179 270.984 484.388 271.057 484.605 271.083C484.718 271.098 484.833 271.075 484.933 271.018C485.034 270.961 485.117 270.872 485.171 270.763C485.202 270.67 485.215 270.571 485.208 270.472C485.201 270.374 485.175 270.278 485.131 270.191C484.958 269.858 484.719 269.572 484.43 269.354C483.672 268.708 482.897 267.705 481.913 267.526Z" fill="black"/>
<path d="M504.292 333.305C512.36 333.305 518.901 326.188 518.901 317.409C518.901 308.63 512.36 301.514 504.292 301.514C496.224 301.514 489.684 308.63 489.684 317.409C489.684 326.188 496.224 333.305 504.292 333.305Z" fill="#6C63FF"/>
<path d="M106.512 317.446H113.361C117.111 317.446 120.707 319.067 123.359 321.952C126.01 324.837 127.5 328.751 127.5 332.831V355.692H92.3728V332.831C92.3728 328.751 93.8625 324.837 96.514 321.952C99.1656 319.067 102.762 317.446 106.512 317.446Z" fill="#3F3D56"/>
<path opacity="0.1" d="M106.512 317.446H113.361C117.111 317.446 120.707 319.067 123.359 321.952C126.01 324.837 127.5 328.751 127.5 332.831V355.692H92.3728V332.831C92.3728 328.751 93.8625 324.837 96.514 321.952C99.1656 319.067 102.762 317.446 106.512 317.446Z" fill="black"/>
<path d="M108.531 325.858C110.083 325.858 111.342 324.489 111.342 322.8C111.342 321.111 110.083 319.742 108.531 319.742C106.978 319.742 105.72 321.111 105.72 322.8C105.72 324.489 106.978 325.858 108.531 325.858Z" fill="#3F3D56"/>
<path d="M108.531 322.037C110.083 322.037 111.342 320.668 111.342 318.978C111.342 317.289 110.083 315.92 108.531 315.92C106.978 315.92 105.72 317.289 105.72 318.978C105.72 320.668 106.978 322.037 108.531 322.037Z" fill="#3F3D56"/>
<path d="M108.531 318.209C110.083 318.209 111.342 316.84 111.342 315.151C111.342 313.462 110.083 312.092 108.531 312.092C106.978 312.092 105.72 313.462 105.72 315.151C105.72 316.84 106.978 318.209 108.531 318.209Z" fill="#3F3D56"/>
<path d="M108.531 314.388C110.083 314.388 111.342 313.018 111.342 311.329C111.342 309.64 110.083 308.271 108.531 308.271C106.978 308.271 105.72 309.64 105.72 311.329C105.72 313.018 106.978 314.388 108.531 314.388Z" fill="#3F3D56"/>
<path d="M108.531 310.566C110.083 310.566 111.342 309.197 111.342 307.508C111.342 305.819 110.083 304.449 108.531 304.449C106.978 304.449 105.72 305.819 105.72 307.508C105.72 309.197 106.978 310.566 108.531 310.566Z" fill="#3F3D56"/>
<path d="M108.531 306.745C110.083 306.745 111.342 305.375 111.342 303.686C111.342 301.997 110.083 300.628 108.531 300.628C106.978 300.628 105.72 301.997 105.72 303.686C105.72 305.375 106.978 306.745 108.531 306.745Z" fill="#3F3D56"/>
<path d="M108.531 302.923C110.083 302.923 111.342 301.554 111.342 299.865C111.342 298.175 110.083 296.806 108.531 296.806C106.978 296.806 105.72 298.175 105.72 299.865C105.72 301.554 106.978 302.923 108.531 302.923Z" fill="#3F3D56"/>
<path d="M112.75 304.449C114.302 304.449 115.561 303.08 115.561 301.391C115.561 299.702 114.302 298.332 112.75 298.332C111.198 298.332 109.939 299.702 109.939 301.391C109.939 303.08 111.198 304.449 112.75 304.449Z" fill="#3F3D56"/>
<path d="M115.561 302.923C117.113 302.923 118.372 301.554 118.372 299.865C118.372 298.175 117.113 296.806 115.561 296.806C114.008 296.806 112.75 298.175 112.75 299.865C112.75 301.554 114.008 302.923 115.561 302.923Z" fill="#3F3D56"/>
<path d="M118.372 301.391C119.924 301.391 121.182 300.021 121.182 298.332C121.182 296.643 119.924 295.274 118.372 295.274C116.819 295.274 115.561 296.643 115.561 298.332C115.561 300.021 116.819 301.391 118.372 301.391Z" fill="#3F3D56"/>
<path d="M108.531 299.102C110.083 299.102 111.342 297.732 111.342 296.043C111.342 294.354 110.083 292.985 108.531 292.985C106.978 292.985 105.72 294.354 105.72 296.043C105.72 297.732 106.978 299.102 108.531 299.102Z" fill="#3F3D56"/>
<path d="M108.531 295.28C110.083 295.28 111.342 293.911 111.342 292.222C111.342 290.532 110.083 289.163 108.531 289.163C106.978 289.163 105.72 290.532 105.72 292.222C105.72 293.911 106.978 295.28 108.531 295.28Z" fill="#3F3D56"/>
<path d="M108.531 291.452C110.083 291.452 111.342 290.083 111.342 288.394C111.342 286.705 110.083 285.335 108.531 285.335C106.978 285.335 105.72 286.705 105.72 288.394C105.72 290.083 106.978 291.452 108.531 291.452Z" fill="#3F3D56"/>
<path d="M108.531 287.631C110.083 287.631 111.342 286.261 111.342 284.572C111.342 282.883 110.083 281.514 108.531 281.514C106.978 281.514 105.72 282.883 105.72 284.572C105.72 286.261 106.978 287.631 108.531 287.631Z" fill="#3F3D56"/>
<path d="M120.181 274.714C119.486 274.825 118.784 274.905 118.083 274.954C118.738 274.331 119.345 273.652 119.899 272.923C119.507 271.639 118.935 270.428 118.202 269.335C117.505 269.761 116.735 270.025 115.94 270.111C115.244 270.222 114.543 270.302 113.841 270.357C114.763 269.538 115.623 268.308 116.528 267.28C114.437 265.217 111.741 264.027 108.919 263.924C106.098 263.82 103.334 264.808 101.119 266.713C98.9049 268.618 97.3829 271.315 96.8242 274.326C96.2656 277.337 96.7064 280.466 98.0684 283.156C99.4305 285.847 101.625 287.925 104.263 289.02C106.9 290.115 109.809 290.157 112.472 289.138C115.135 288.12 117.38 286.106 118.807 283.456C120.234 280.806 120.751 277.691 120.266 274.665L120.181 274.714Z" fill="#6C63FF"/>
<path d="M129.575 289.908C128.858 290.387 128.049 290.679 127.211 290.763C126.516 290.874 125.814 290.96 125.113 291.009C125.858 290.282 126.554 289.496 127.194 288.658C125.5 288.178 123.701 288.402 122.15 289.287C120.599 290.173 119.408 291.656 118.809 293.446C118.209 295.237 118.245 297.206 118.909 298.97C119.574 300.733 120.818 302.163 122.4 302.981C123.982 303.799 125.788 303.945 127.463 303.391C129.139 302.838 130.565 301.624 131.462 299.987C132.359 298.35 132.663 296.409 132.314 294.541C131.965 292.674 130.988 291.015 129.575 289.889V289.908Z" fill="#6C63FF"/>
<path d="M104.317 304.449C105.87 304.449 107.128 303.08 107.128 301.391C107.128 299.702 105.87 298.332 104.317 298.332C102.765 298.332 101.507 299.702 101.507 301.391C101.507 303.08 102.765 304.449 104.317 304.449Z" fill="#3F3D56"/>
<path d="M101.507 302.923C103.059 302.923 104.317 301.554 104.317 299.865C104.317 298.175 103.059 296.806 101.507 296.806C99.9542 296.806 98.6958 298.175 98.6958 299.865C98.6958 301.554 99.9542 302.923 101.507 302.923Z" fill="#3F3D56"/>
<path d="M98.6958 301.391C100.248 301.391 101.507 300.021 101.507 298.332C101.507 296.643 100.248 295.274 98.6958 295.274C97.1434 295.274 95.8849 296.643 95.8849 298.332C95.8849 300.021 97.1434 301.391 98.6958 301.391Z" fill="#3F3D56"/>
<path d="M87.492 289.908C88.2088 290.388 89.018 290.68 89.8561 290.763C90.5517 290.874 91.253 290.96 91.9543 291.009C91.2075 290.283 90.5118 289.498 89.8731 288.658C91.5677 288.178 93.3663 288.402 94.9171 289.287C96.4679 290.173 97.6595 291.656 98.2588 293.446C98.8582 295.237 98.8222 297.206 98.158 298.97C97.4937 300.733 96.2489 302.163 94.667 302.981C93.0851 303.799 91.2798 303.945 89.604 303.391C87.9282 302.838 86.5024 301.624 85.6054 299.987C84.7084 298.35 84.4046 296.409 84.7535 294.541C85.1024 292.674 86.0789 291.015 87.492 289.889V289.908Z" fill="#6C63FF"/>
<path d="M106.512 319.742H113.361C117.111 319.742 120.707 321.362 123.359 324.248C126.01 327.133 127.5 331.046 127.5 335.126V355.354C127.5 356.046 127.247 356.71 126.797 357.199C126.348 357.688 125.738 357.963 125.102 357.963H94.7708C94.1348 357.963 93.5249 357.688 93.0752 357.199C92.6255 356.71 92.3728 356.046 92.3728 355.354V335.126C92.3728 331.046 93.8625 327.133 96.514 324.248C99.1656 321.362 102.762 319.742 106.512 319.742Z" fill="#3F3D56"/>
<g opacity="0.1">
<path opacity="0.1" d="M120.396 275.551C120.112 275.882 119.81 276.194 119.491 276.486C119.814 276.486 120.13 276.431 120.453 276.394C120.464 276.111 120.425 275.828 120.396 275.551Z" fill="black"/>
<path opacity="0.1" d="M115.272 271.895C115.979 271.846 116.675 271.766 117.376 271.655C118.005 271.569 118.62 271.386 119.203 271.114C118.918 270.498 118.589 269.907 118.219 269.348C117.867 269.581 117.486 269.757 117.088 269.871C116.533 270.597 115.926 271.274 115.272 271.895Z" fill="black"/>
<path opacity="0.1" d="M97.9945 278.462C97.9903 276.128 98.5644 273.837 99.6564 271.829C100.748 269.822 102.318 268.171 104.199 267.053C106.081 265.934 108.205 265.388 110.348 265.472C112.491 265.557 114.573 266.268 116.375 267.532L116.556 267.323C115.38 266.184 114.008 265.31 112.52 264.751C111.032 264.191 109.457 263.958 107.885 264.064C106.314 264.17 104.777 264.613 103.364 265.368C101.951 266.123 100.689 267.175 99.6509 268.463C98.613 269.752 97.8195 271.25 97.3164 272.874C96.8132 274.497 96.6102 276.213 96.719 277.922C96.8279 279.631 97.2465 281.299 97.9508 282.832C98.655 284.364 99.6309 285.729 100.822 286.849C98.9932 284.508 97.9906 281.534 97.9945 278.462Z" fill="black"/>
</g>
<g opacity="0.1">
<path opacity="0.1" d="M125.113 292.535C125.814 292.486 126.516 292.406 127.211 292.295C128.05 292.209 128.859 291.915 129.575 291.434C130.369 292.07 131.032 292.881 131.519 293.814C132.006 294.747 132.307 295.781 132.403 296.849C132.431 296.582 132.444 296.312 132.443 296.043C132.448 294.848 132.195 293.668 131.704 292.599C131.212 291.53 130.497 290.602 129.615 289.889C128.898 290.368 128.089 290.661 127.251 290.745L126.685 290.825C126.203 291.438 125.677 292.01 125.113 292.535Z" fill="black"/>
<path opacity="0.1" d="M125.396 289.926C125.63 289.929 125.865 289.948 126.097 289.981C126.465 289.557 126.827 289.101 127.194 288.658C126.155 288.356 125.065 288.318 124.01 288.548C122.954 288.778 121.962 289.268 121.109 289.982C120.256 290.696 119.565 291.614 119.09 292.665C118.616 293.716 118.37 294.872 118.372 296.043C118.372 296.302 118.372 296.554 118.406 296.806C118.579 294.92 119.391 293.172 120.683 291.901C121.974 290.63 123.654 289.926 125.396 289.926Z" fill="black"/>
</g>
<g opacity="0.1">
<path opacity="0.1" d="M91.9543 292.535C91.253 292.486 90.5517 292.406 89.8561 292.295C89.0175 292.21 88.2084 291.916 87.492 291.434C86.698 292.07 86.0358 292.881 85.5486 293.814C85.0615 294.747 84.7601 295.781 84.6642 296.849C84.6368 296.582 84.6236 296.312 84.6247 296.043C84.6193 294.848 84.8725 293.668 85.3638 292.599C85.855 291.53 86.5705 290.602 87.4525 289.889C88.1692 290.369 88.9784 290.662 89.8165 290.745L90.382 290.825C90.8616 291.441 91.3875 292.014 91.9543 292.535Z" fill="black"/>
<path opacity="0.1" d="M91.6715 289.926C91.4351 289.929 91.199 289.948 90.9646 289.981C90.6026 289.557 90.2407 289.101 89.8731 288.658C90.9128 288.356 92.0025 288.318 93.0578 288.548C94.1131 288.778 95.1057 289.268 95.9587 289.982C96.8117 290.696 97.5023 291.614 97.9769 292.665C98.4515 293.716 98.6975 294.872 98.6958 296.043C98.6958 296.302 98.6958 296.554 98.6618 296.806C98.4879 294.92 97.6764 293.172 96.3847 291.901C95.093 290.63 93.4133 289.926 91.6715 289.926Z" fill="black"/>
</g>
</g>
<defs>
<clipPath id="clip0_2_26">
<rect width="647" height="392" fill="white"/>
</clipPath>
</defs>
</svg>
