<svg width="604" height="658" viewBox="0 0 604 658" fill="none" xmlns="http://www.w3.org/2000/svg">
    <g clip-path="url(#clip0_48_999)">
        <path d="M58.0842 554.307L52.7647 531.52C43.333 527.178 33.6833 523.418 23.8617 520.257L23.1902 530.847L20.4672 519.18C8.28662 515.398 0 513.734 0 513.734C0 513.734 11.1905 559.964 34.6694 595.308L62.0244 600.527L40.773 603.856C43.7264 607.715 46.9004 611.37 50.276 614.797C84.4272 649.227 122.466 665.025 135.237 650.08C148.008 635.135 130.676 595.11 96.5243 560.682C85.9372 550.008 72.6375 541.443 59.3241 534.7L58.0842 554.307Z" fill="#04CA83" />
        <path d="M108.673 529.556L114.964 507.063C108.957 498.051 102.486 489.414 95.5836 481.194L89.9689 489.883L93.1898 478.366C84.561 468.293 78.2595 462.217 78.2595 462.217C78.2595 462.217 65.8405 508.076 69.1165 551.513L90.05 571.339L70.2705 562.256C70.9626 567.219 71.9413 572.13 73.2011 576.96C86.0506 625.608 111.095 660.487 129.14 654.864C147.184 649.242 151.396 605.246 138.546 556.598C134.563 541.517 127.253 526.717 119.066 513.471L108.673 529.556Z" fill="#04CA83" />
        <path d="M421.468 155.881H418.15V57.1467C418.15 49.6421 416.789 42.211 414.145 35.2776C411.501 28.3443 407.625 22.0445 402.74 16.7379C397.854 11.4313 392.054 7.22192 385.67 4.35003C379.287 1.47814 372.445 0 365.536 0H172.941C158.987 0 145.604 6.0208 135.737 16.7379C125.87 27.455 120.327 41.9905 120.327 57.1467V598.818C120.327 606.322 121.688 613.754 124.332 620.687C126.976 627.62 130.851 633.92 135.737 639.227C140.623 644.533 146.423 648.743 152.806 651.615C159.19 654.486 166.031 655.965 172.941 655.965H365.536C379.49 655.964 392.872 649.943 402.739 639.226C412.606 628.509 418.149 613.974 418.149 598.818V226.161H421.467L421.468 155.881Z" fill="#2F2E41" />
        <path d="M367.659 14.8621H342.521C343.677 17.9409 344.118 21.2812 343.806 24.5889C343.493 27.8966 342.437 31.0701 340.729 33.8297C339.021 36.5893 336.715 38.8504 334.013 40.4138C331.311 41.9772 328.297 42.7948 325.236 42.7947H214.9C211.839 42.7945 208.825 41.9767 206.123 40.4132C203.421 38.8497 201.115 36.5886 199.408 33.829C197.7 31.0694 196.644 27.896 196.331 24.5885C196.019 21.281 196.46 17.9407 197.616 14.8621H174.136C163.715 14.8621 153.721 19.3583 146.353 27.3618C138.984 35.3652 134.844 46.2201 134.844 57.5387V598.423C134.844 609.742 138.984 620.597 146.353 628.6C153.721 636.604 163.715 641.1 174.136 641.1H367.659C378.08 641.1 388.074 636.604 395.442 628.6C402.811 620.597 406.95 609.742 406.95 598.423V57.5378C406.95 46.2194 402.811 35.3647 395.442 27.3614C388.073 19.3582 378.079 14.8621 367.659 14.8621Z" fill="#3F3D56" />
        <path d="M246.237 230.323C246.237 226.542 247.153 222.828 248.894 219.554C250.635 216.28 253.139 213.562 256.155 211.674C253.141 209.783 249.722 208.787 246.241 208.787C242.761 208.786 239.341 209.781 236.327 211.671C233.313 213.561 230.809 216.28 229.069 219.554C227.329 222.827 226.412 226.541 226.412 230.322C226.412 234.102 227.329 237.816 229.069 241.09C230.809 244.364 233.313 247.082 236.327 248.972C239.341 250.862 242.761 251.857 246.241 251.856C249.722 251.856 253.141 250.86 256.155 248.97C253.139 247.081 250.635 244.364 248.894 241.09C247.153 237.817 246.237 234.103 246.237 230.323Z" fill="#EDEAFE" />
        <path d="M271.162 230.323C271.161 226.542 272.078 222.828 273.819 219.554C275.56 216.28 278.064 213.562 281.079 211.674C278.066 209.783 274.646 208.787 271.166 208.787C267.685 208.786 264.266 209.781 261.252 211.671C258.237 213.561 255.734 216.28 253.994 219.554C252.253 222.827 251.337 226.541 251.337 230.322C251.337 234.102 252.253 237.816 253.994 241.09C255.734 244.364 258.237 247.082 261.252 248.972C264.266 250.862 267.685 251.857 271.166 251.856C274.646 251.856 278.066 250.86 281.079 248.97C278.064 247.081 275.56 244.364 273.819 241.09C272.078 237.817 271.162 234.103 271.162 230.323Z" fill="#EDEAFE" />
        <path d="M295.521 251.857C306.471 251.857 315.347 242.215 315.347 230.322C315.347 218.429 306.471 208.787 295.521 208.787C284.571 208.787 275.694 218.429 275.694 230.322C275.694 242.215 284.571 251.857 295.521 251.857Z" fill="#6C63FF" />
        <path d="M328.656 297.583H213.102C212.002 297.582 210.948 297.107 210.17 296.262C209.392 295.417 208.954 294.271 208.953 293.077V167.567C208.954 166.373 209.392 165.227 210.17 164.382C210.948 163.537 212.002 163.062 213.102 163.061H328.656C329.756 163.062 330.811 163.537 331.589 164.382C332.367 165.227 332.804 166.373 332.805 167.567V293.077C332.804 294.271 332.367 295.417 331.589 296.262C330.811 297.107 329.756 297.582 328.656 297.583ZM213.102 164.864C212.442 164.865 211.809 165.15 211.343 165.657C210.876 166.164 210.613 166.851 210.613 167.568V293.077C210.613 293.794 210.876 294.482 211.343 294.989C211.809 295.496 212.442 295.781 213.102 295.781H328.656C329.316 295.781 329.949 295.496 330.416 294.989C330.882 294.482 331.145 293.794 331.146 293.077V167.568C331.145 166.851 330.882 166.164 330.416 165.657C329.949 165.15 329.316 164.865 328.656 164.864H213.102Z" fill="#EDEAFE" />
        <path d="M354.457 393.792H177.233V395.595H354.457V393.792Z" fill="#EDEAFE" />
        <path d="M182.83 382.536C185.921 382.536 188.426 379.814 188.426 376.457C188.426 373.1 185.921 370.378 182.83 370.378C179.739 370.378 177.233 373.1 177.233 376.457C177.233 379.814 179.739 382.536 182.83 382.536Z" fill="#6C63FF" />
        <path d="M354.457 454.579H177.233V456.382H354.457V454.579Z" fill="#EDEAFE" />
        <path d="M182.83 443.324C185.921 443.324 188.426 440.602 188.426 437.245C188.426 433.887 185.921 431.166 182.83 431.166C179.739 431.166 177.233 433.887 177.233 437.245C177.233 440.602 179.739 443.324 182.83 443.324Z" fill="#6C63FF" />
        <path d="M351.214 523.801H295.206C294.239 523.8 293.311 523.382 292.627 522.639C291.943 521.896 291.558 520.888 291.557 519.837V498.516C291.558 497.465 291.943 496.457 292.627 495.714C293.311 494.971 294.239 494.553 295.206 494.552H351.214C352.182 494.553 353.109 494.971 353.793 495.714C354.477 496.457 354.862 497.465 354.863 498.516V519.837C354.862 520.888 354.477 521.896 353.793 522.639C353.109 523.382 352.182 523.8 351.214 523.801Z" fill="#6C63FF" />
        <path d="M201.086 382.536C204.177 382.536 206.683 379.814 206.683 376.457C206.683 373.1 204.177 370.378 201.086 370.378C197.995 370.378 195.489 373.1 195.489 376.457C195.489 379.814 197.995 382.536 201.086 382.536Z" fill="#6C63FF" />
        <path d="M219.343 382.536C222.434 382.536 224.94 379.814 224.94 376.457C224.94 373.1 222.434 370.378 219.343 370.378C216.252 370.378 213.746 373.1 213.746 376.457C213.746 379.814 216.252 382.536 219.343 382.536Z" fill="#6C63FF" />
        <path d="M201.086 443.324C204.177 443.324 206.683 440.602 206.683 437.245C206.683 433.887 204.177 431.166 201.086 431.166C197.995 431.166 195.489 433.887 195.489 437.245C195.489 440.602 197.995 443.324 201.086 443.324Z" fill="#6C63FF" />
        <path d="M219.343 443.324C222.434 443.324 224.94 440.602 224.94 437.245C224.94 433.887 222.434 431.166 219.343 431.166C216.252 431.166 213.746 433.887 213.746 437.245C213.746 440.602 216.252 443.324 219.343 443.324Z" fill="#6C63FF" />
        <path d="M601.744 658H19.5266C18.2802 658 17.2706 657.519 17.2706 656.927C17.2706 656.335 18.2802 655.854 19.5266 655.854H601.744C602.99 655.854 604 656.334 604 656.927C604 657.52 602.99 658 601.744 658Z" fill="#3F3D56" />
        <path d="M457.898 431.101C458.296 431.298 458.679 431.53 459.042 431.794L495.413 414.934L496.711 404.527L511.244 404.431L510.386 428.298L462.38 442.087C462.279 442.449 462.158 442.805 462.017 443.151C461.323 444.76 460.207 446.11 458.809 447.032C457.411 447.953 455.793 448.406 454.159 448.332C452.525 448.259 450.947 447.663 449.624 446.618C448.301 445.574 447.291 444.129 446.722 442.463C446.153 440.798 446.049 438.987 446.424 437.258C446.8 435.529 447.637 433.959 448.831 432.745C450.025 431.531 451.523 430.727 453.136 430.435C454.749 430.142 456.406 430.374 457.898 431.101Z" fill="#FFB8B8" />
        <path d="M516.529 647.382H506.588L501.859 605.732L516.531 605.733L516.529 647.382Z" fill="#FFB8B8" />
        <path d="M499.487 644.296H518.659V657.408H487.415C487.415 653.93 488.687 650.595 490.95 648.136C493.214 645.677 496.285 644.296 499.487 644.296Z" fill="#2F2E41" />
        <path d="M555.193 644.331L545.3 645.389L536.833 604.444L551.435 602.882L555.193 644.331Z" fill="#FFB8B8" />
        <path d="M537.955 643.075L557.035 641.033L558.218 654.082L527.124 657.409C526.969 655.695 527.126 653.965 527.586 652.317C528.046 650.669 528.8 649.136 529.806 647.805C530.812 646.474 532.049 645.371 533.447 644.56C534.845 643.748 536.377 643.243 537.955 643.075Z" fill="#2F2E41" />
        <path d="M519.297 360.352C530.296 360.352 539.213 350.667 539.213 338.719C539.213 326.772 530.296 317.087 519.297 317.087C508.297 317.087 499.38 326.772 499.38 338.719C499.38 350.667 508.297 360.352 519.297 360.352Z" fill="#FFB8B8" />
        <path d="M504.366 638.959C503.512 638.961 502.684 638.636 502.029 638.04C501.374 637.444 500.934 636.616 500.786 635.702C495.64 604.677 478.82 503.23 478.418 500.42C478.409 500.356 478.405 500.291 478.405 500.225V492.661C478.405 492.386 478.484 492.117 478.632 491.893L480.854 488.513C480.96 488.35 481.098 488.216 481.259 488.121C481.42 488.025 481.598 487.971 481.781 487.962C494.449 487.317 535.937 485.427 537.941 488.147C539.954 490.88 539.243 499.162 539.08 500.795L539.088 500.965L557.727 630.433C557.873 631.466 557.638 632.519 557.075 633.366C556.511 634.212 555.663 634.783 554.714 634.956L543.073 637.039C542.206 637.19 541.317 636.998 540.57 636.499C539.822 635.999 539.264 635.224 538.998 634.315C535.397 621.818 523.323 579.78 519.139 563.513C519.113 563.41 519.053 563.321 518.971 563.262C518.889 563.204 518.79 563.18 518.692 563.194C518.595 563.209 518.506 563.262 518.442 563.344C518.378 563.425 518.343 563.528 518.344 563.635C518.553 579.142 519.058 618.704 519.233 632.368L519.252 633.839C519.259 634.836 518.923 635.799 518.308 636.539C517.694 637.278 516.846 637.741 515.933 637.835L504.707 638.942C504.593 638.954 504.479 638.959 504.366 638.959Z" fill="#2F2E41" />
        <path d="M506.657 368.858C503.181 371.102 501.101 375.226 499.908 379.423C497.698 387.192 496.368 395.225 495.947 403.344L494.685 427.653L479.071 492.099C492.604 504.536 500.411 501.71 518.628 491.536C536.845 481.363 538.926 494.928 538.926 494.928L542.569 440.093L547.774 380.173C546.606 378.645 545.283 377.264 543.832 376.056C539.021 371.993 533.424 369.169 527.462 367.796C521.501 366.424 515.33 366.539 509.415 368.133L506.657 368.858Z" fill="#6C63FF" />
        <path d="M501.585 444.116C502.005 444.288 502.412 444.495 502.802 444.736L538.764 425.186L539.361 414.594L554.195 413.483L554.99 437.627L506.932 454.89C506.539 456.718 505.644 458.373 504.364 459.635C503.085 460.897 501.482 461.706 499.769 461.954C498.055 462.202 496.313 461.878 494.774 461.025C493.235 460.172 491.971 458.83 491.151 457.177C490.331 455.525 489.993 453.64 490.183 451.775C490.373 449.909 491.082 448.15 492.214 446.732C493.347 445.314 494.85 444.305 496.524 443.837C498.198 443.37 499.963 443.468 501.585 444.116Z" fill="#FFB8B8" />
        <path d="M547.514 380.447C556.362 383.839 557.92 420.587 557.92 420.587C547.511 414.368 535.019 424.544 535.019 424.544C535.019 424.544 532.417 414.933 529.294 402.496C528.351 398.998 528.238 395.298 528.966 391.739C529.694 388.181 531.239 384.881 533.458 382.145C533.458 382.145 538.666 377.053 547.514 380.447Z" fill="#6C63FF" />
        <path d="M537.155 344.44C534.674 342.284 531.288 346.203 531.288 346.203L529.303 326.797C529.303 326.797 516.895 328.411 508.954 326.258C501.013 324.105 499.773 334.075 499.773 334.075C499.363 330.048 499.28 325.989 499.525 321.946C500.021 317.095 506.473 312.243 517.888 309.008C529.303 305.774 535.258 319.79 535.258 319.79C543.2 324.102 539.636 346.597 537.155 344.44Z" fill="#2F2E41" />
    </g>
    <defs>
        <clipPath id="clip0_48_999">
            <rect width="604" height="658" fill="white" />
        </clipPath>
    </defs>
</svg>
    