<svg width="697" height="738" viewBox="0 0 697 738" fill="none" xmlns="http://www.w3.org/2000/svg">
    <path d="M664.316 687.69C664.316 715.474 515.606 738 332.158 738C148.71 738 0 715.474 0 687.69C0 668.021 74.5427 650.98 183.18 642.714C227.978 639.295 278.595 637.38 332.158 637.38C354.177 637.38 375.692 637.705 396.5 638.322C549.154 642.866 664.316 663.239 664.316 687.69Z" fill="#3F3D56" />
    <path opacity="0.1" d="M289.299 697.969C359.719 697.969 416.805 690.945 416.805 682.281C416.805 673.616 359.719 666.593 289.299 666.593C218.879 666.593 161.793 673.616 161.793 682.281C161.793 690.945 218.879 697.969 289.299 697.969Z" fill="black" />
    <path d="M288.763 693.641C355.336 693.641 409.305 635.513 409.305 563.809C409.305 492.105 355.336 433.977 288.763 433.977C222.19 433.977 168.222 492.105 168.222 563.809C168.222 635.513 222.19 693.641 288.763 693.641Z" fill="#3F3D56" />
    <path d="M326.801 640.626H251.797V709.87H326.801V640.626Z" fill="#434175" />
    <path d="M424.841 657.397L420.555 681.199L448.413 685.527L466.629 674.708L465.557 657.397H424.841Z" fill="#575A89" />
    <path d="M284.477 210.558C284.477 210.558 282.334 235.443 276.977 236.525C271.62 237.607 288.763 280.884 288.763 280.884H314.479L334.837 275.474L325.194 251.672C325.194 251.672 312.336 234.361 321.979 220.296C331.622 206.231 284.477 210.558 284.477 210.558Z" fill="#FBBEBE" />
    <path opacity="0.1" d="M284.477 210.558C284.477 210.558 282.334 235.443 276.977 236.525C271.62 237.607 288.763 280.884 288.763 280.884H314.479L334.837 275.474L325.194 251.672C325.194 251.672 312.336 234.361 321.979 220.296C331.622 206.231 284.477 210.558 284.477 210.558Z" fill="black" />
    <path d="M230.903 400.978C230.903 400.978 203.045 455.075 225.546 465.894C248.047 476.714 253.405 475.632 253.405 478.877C253.405 482.123 249.119 481.041 251.262 486.451C253.405 491.861 246.976 513.499 253.405 526.482C259.833 539.466 257.69 549.203 257.69 549.203C257.69 549.203 257.69 550.285 259.833 554.613C261.976 558.94 263.048 562.186 261.976 564.35C260.905 566.514 254.476 580.579 260.905 583.825C267.334 587.071 300.55 589.234 303.764 583.825C306.978 578.415 300.55 575.169 303.764 571.924C306.978 568.678 309.121 567.596 306.978 565.432C304.835 563.268 302.692 536.22 302.692 536.22C302.692 536.22 308.05 504.844 305.907 500.516C303.764 496.188 300.55 491.861 302.692 488.615C304.835 485.369 306.978 486.451 308.05 482.123C309.121 477.795 311.264 468.058 311.264 468.058L323.051 466.976L350.909 472.386C350.909 472.386 381.982 507.008 416.269 517.827C416.269 517.827 425.912 527.564 429.127 527.564C432.341 527.564 432.341 527.564 431.27 529.728C430.198 531.892 426.984 531.892 429.127 534.056C431.27 536.22 434.484 532.974 432.341 536.22C430.198 539.466 428.055 539.466 430.198 541.629C432.341 543.793 429.127 555.695 429.127 556.776C429.127 557.858 419.484 659.56 422.698 661.724C425.912 663.888 470.915 670.379 474.129 661.724C477.343 653.068 471.986 642.249 471.986 642.249C471.986 642.249 488.058 512.417 483.772 503.762C479.486 495.106 464.486 456.157 384.125 431.272C384.125 431.272 361.624 426.945 361.624 423.699C361.624 420.453 359.481 399.896 355.195 398.814C350.909 397.733 326.265 396.651 326.265 396.651L295.192 406.388L252.333 398.814L230.903 400.978Z" fill="#2F2E41" />
    <path d="M268.405 582.743L263.048 602.218C263.048 602.218 258.762 633.594 264.119 641.167C268.327 647.116 275.841 654.4 289.775 655.678C293.68 656.04 297.591 655.045 300.86 652.858C304.129 650.67 306.561 647.422 307.753 643.65C307.913 643.198 308.013 642.727 308.05 642.249C308.05 640.085 304.836 614.119 304.836 614.119L299.478 587.071L298.407 579.497L268.405 582.743Z" fill="#2F2E41" />
    <path d="M424.841 675.789C424.841 675.789 419.484 670.379 418.412 675.789C417.341 681.199 413.055 703.919 420.555 705.001C428.055 706.083 499.844 716.902 507.345 712.575C514.845 708.247 528.774 701.755 520.202 698.51C511.631 695.264 486.987 685.526 486.987 685.526C486.987 685.526 473.057 667.134 470.914 666.052C468.772 664.97 456.985 667.134 451.628 671.461C446.27 675.789 424.841 675.789 424.841 675.789Z" fill="#2F2E41" />
    <path d="M310.193 233.279C328.537 233.279 343.409 218.263 343.409 199.739C343.409 181.216 328.537 166.199 310.193 166.199C291.848 166.199 276.977 181.216 276.977 199.739C276.977 218.263 291.848 233.279 310.193 233.279Z" fill="#FBBEBE" />
    <path d="M306.978 275.474L294.121 261.409L279.868 233.279C279.868 233.279 269.477 230.033 267.334 235.443C265.191 240.853 226.618 258.163 226.618 258.163C226.618 258.163 236.261 349.046 231.975 357.701C227.689 366.357 220.189 400.978 226.618 404.224C233.046 407.47 263.048 404.224 272.691 408.552C282.334 412.88 310.193 412.88 317.693 407.47C325.194 402.06 327.336 397.733 334.837 400.978C341.222 403.742 356.149 309.273 360.447 281.121C360.809 278.757 360.508 276.337 359.579 274.136C358.649 271.935 357.128 270.041 355.188 268.668C345.574 261.859 328.259 250.124 325.194 251.672C320.908 253.836 306.978 275.474 306.978 275.474Z" fill="#575A89" />
    <path d="M353.052 271.147C355.568 271.782 357.831 273.179 359.538 275.151C361.245 277.123 362.313 279.575 362.6 282.178L371.267 360.947C371.267 360.947 349.838 407.47 339.123 376.094C328.408 344.718 353.052 271.147 353.052 271.147Z" fill="#575A89" />
    <path d="M350.909 368.52L374.481 362.029C374.481 362.029 378.767 392.323 383.053 392.323C387.339 392.323 368.053 409.634 358.409 407.47C348.766 405.306 334.837 397.733 333.765 392.323C332.694 386.913 343.409 364.193 343.409 364.193L350.909 368.52Z" fill="#575A89" />
    <path d="M285.118 214.208C287.377 209.179 286.985 203.313 288.852 198.123C289.852 195.344 291.475 192.836 293.593 190.795C295.712 188.754 298.269 187.236 301.065 186.358C303.861 185.48 306.82 185.267 309.712 185.735C312.603 186.203 315.348 187.339 317.732 189.056C320.134 190.785 322.542 193.215 325.474 192.885C328.631 192.529 331.447 188.973 334.35 190.276C337.568 191.721 336.699 197.543 339.958 198.888C341.674 199.596 343.701 198.506 344.691 196.924C345.557 195.261 346.028 193.418 346.069 191.54C346.519 186.925 346.925 182.041 344.943 177.859C344.11 176.441 343.383 174.962 342.77 173.434C342.423 172.007 342.284 170.536 342.357 169.069C342.339 163.645 341.947 157.987 339.243 153.3C336.244 148.1 330.699 144.774 324.914 143.323C319.129 141.871 313.069 142.094 307.13 142.602C297.312 143.441 287.072 145.24 279.337 151.403C278.286 152.179 277.381 153.139 276.666 154.237C275.987 155.542 275.507 156.944 275.242 158.394C273.57 165.27 271.063 171.912 267.777 178.168C266.196 180.82 264.905 183.637 263.924 186.57C263.104 189.55 263.159 192.946 264.877 195.508C266.275 197.593 268.51 198.704 270.266 200.409C272.006 202.099 272.82 205.347 274.747 206.627C276.43 207.743 278.445 206.955 280.161 208.139C282.364 209.658 282.523 212.99 285.118 214.208Z" fill="#2F2E41" />
    <path d="M312.336 291.703L315.55 285.212C315.55 285.212 362.695 299.277 372.339 312.26C372.339 312.26 395.911 297.113 408.769 299.277L421.627 301.441L381.982 337.144L331.622 332.817L312.336 291.703Z" fill="#EDEAFE" />
    <path d="M310.193 285.212L266.262 346.882L329.479 378.258C329.479 378.258 335.389 381.504 339.935 378.258L381.982 358.783L421.627 301.441L381.982 321.997C381.982 321.997 377.696 313.342 369.124 317.67L310.193 285.212Z" fill="#6C63FF" />
    <path d="M377.696 394.487L386.268 371.766C386.268 371.766 405.554 346.882 394.84 334.981C384.125 323.079 372.339 369.602 372.339 369.602L377.696 394.487Z" fill="#FBBEBE" />
    <path d="M278.796 390.861L297.5 375.55C297.5 375.55 326.548 363.794 323.192 348.071C319.837 332.348 286.526 366.621 286.526 366.621L278.796 390.861Z" fill="#FBBEBE" />
    <path opacity="0.1" d="M232.511 281.425H231.439C231.439 281.425 214.831 261.409 211.617 288.458C208.402 315.506 197.688 405.306 225.546 408.552C253.405 411.798 273.227 395.028 273.227 395.028C273.227 395.028 293.585 363.652 286.085 363.652C282.456 363.652 272.586 362.006 263.584 362.57C253.98 363.171 245.351 365.903 245.904 363.111C246.976 357.701 262.512 288.998 232.511 281.425Z" fill="black" />
    <path d="M230.903 260.327L226.618 258.163C226.618 258.163 209.474 261.409 206.259 288.458C203.045 315.506 192.33 405.306 220.189 408.552C248.047 411.798 285.549 404.224 285.549 404.224C285.549 404.224 293.049 363.111 285.549 363.111C278.049 363.111 239.475 368.52 240.547 363.111C241.618 357.701 260.905 267.901 230.903 260.327Z" fill="#575A89" />
    <path d="M362.16 382.045L373.975 363.759L381.446 393.946L362.16 402.602V382.045Z" fill="#575A89" />
    <path d="M119.441 121.299C135.419 121.299 148.371 108.22 148.371 92.087C148.371 75.9536 135.419 62.8749 119.441 62.8749C103.463 62.8749 90.5111 75.9536 90.5111 92.087C90.5111 108.22 103.463 121.299 119.441 121.299Z" fill="#EDEAFE" />
    <path d="M153.728 309.555H85.1537V378.799H153.728V309.555Z" fill="#EDEAFE" />
    <path d="M398.59 0L415.947 30.3557L433.302 60.7115H398.59H363.877L381.233 30.3557L398.59 0Z" fill="#EDEAFE" />
</svg>
    